<?xml version="1.0" encoding="UTF-8"?>
<svg width="244px" height="150px" viewBox="0 0 244 150" version="1.1" xmlns="http://www.w3.org/2000/svg" xmlns:xlink="http://www.w3.org/1999/xlink">
    <!-- Generator: Sketch 48.2 (47327) - http://www.bohemiancoding.com/sketch -->
    <title>Artboard</title>
    <desc>Created with Sketch.</desc>
    <defs></defs>
    <g id="Page-1" stroke="none" stroke-width="1" fill="none" fill-rule="evenodd">
        <g id="Artboard">
            <g id="Group-3" transform="translate(-4.000000, -11.000000)">
                <g id="fishing" transform="translate(55.694864, 62.466334) rotate(-30.000000) translate(-55.694864, -62.466334) translate(21.694864, 9.966334)" fill="#343434" fill-rule="nonzero">
                    <path d="M47.0769231,66.5 L57.5384615,66.5 L57.5384615,77 C57.5384615,86.6495 49.7167179,94.5 40.1025641,94.5 C30.4884103,94.5 22.6666667,86.6495 22.6666667,77 L22.6666667,34.19745 C29.7404103,31.9676 34.8717949,25.33615 34.8717949,17.5 C34.8717949,7.83475 27.0653949,0 17.4358974,0 C7.8064,0 0,7.83475 0,17.5 C0,25.33615 5.13138462,31.9676 12.2051282,34.19745 L12.2051282,77 C12.2051282,92.46405 24.695159,105 40.1025641,105 C55.5099692,105 68,92.46405 68,77 L68,35 L47.0769231,66.5 Z M17.4358974,24.5 C13.5843077,24.5 10.4615385,21.3661 10.4615385,17.5 C10.4615385,13.6339 13.5843077,10.5 17.4358974,10.5 C21.2874872,10.5 24.4102564,13.6339 24.4102564,17.5 C24.4102564,21.3661 21.2874872,24.5 17.4358974,24.5 Z" id="Shape"></path>
                </g>
                <g id="Group-2" transform="translate(71.000000, 83.000000)">
                    <rect id="Rectangle" fill="#343434" x="0" y="0" width="170" height="60" rx="8"></rect>
                    <g id="Group" transform="translate(10.000000, 20.000000)" fill="#11C56F">
                        <circle id="Oval-3" cx="10" cy="10" r="10"></circle>
                        <circle id="Oval-3" cx="36" cy="10" r="10"></circle>
                        <circle id="Oval-3" cx="62" cy="10" r="10"></circle>
                        <circle id="Oval-3" cx="88" cy="10" r="10"></circle>
                        <circle id="Oval-3" cx="114" cy="10" r="10"></circle>
                        <circle id="Oval-3" cx="140" cy="10" r="10"></circle>
                    </g>
                </g>
            </g>
        </g>
    </g>
</svg>