<?xml version="1.0" encoding="UTF-8"?>
<svg width="329px" height="337px" viewBox="0 0 329 337" version="1.1" xmlns="http://www.w3.org/2000/svg" xmlns:xlink="http://www.w3.org/1999/xlink">
    <!-- Generator: Sketch 48.2 (47327) - http://www.bohemiancoding.com/sketch -->
    <title>Artboard</title>
    <desc>Created with Sketch.</desc>
    <defs>
        <rect id="path-1" x="0" y="0" width="220" height="220" rx="50"></rect>
        <filter x="-613.6%" y="-613.6%" width="1327.3%" height="1327.3%" filterUnits="objectBoundingBox" id="filter-2">
            <feOffset dx="0" dy="0" in="SourceAlpha" result="shadowOffsetOuter1"></feOffset>
            <feGaussianBlur stdDeviation="450" in="shadowOffsetOuter1" result="shadowBlurOuter1"></feGaussianBlur>
            <feColorMatrix values="0 0 0 0 0.356862745   0 0 0 0 0.784313725   0 0 0 0 0.580392157  0 0 0 1 0" type="matrix" in="shadowBlurOuter1"></feColorMatrix>
        </filter>
    </defs>
    <g id="kryptonite_by_kryptco" stroke="none" stroke-width="1" fill="none" fill-rule="evenodd">
        <g id="Artboard">
            <g id="Group-2" transform="translate(55.000000, 59.000000)">
                <g id="Rectangle">
                    <use fill="black" fill-opacity="1" filter="url(#filter-2)" xlink:href="#path-1"></use>
                    <use fill="#FFFFFF" fill-rule="evenodd" xlink:href="#path-1"></use>
                </g>
                <g id="shield" transform="translate(40.000000, 31.000000)" fill="#5BC894">
                    <g id="Icon">
                        <g id="Logo-corrections">
                            <g id="Kryptonite_Icon_WhiteOnGreen">
                                <g id="Group">
                                    <path d="M69.9745358,0 C115.610103,0 139.949072,30.3846153 139.949072,30.3846153 L139.949072,100.269231 C139.949072,139.769231 88.2287625,154.961538 69.9745358,158 L69.9745358,0 L69.9745358,0 Z M69.9745358,36.4615385 C91.817853,36.4615385 109.52536,54.1462909 109.52536,75.9615385 C109.52536,97.7767861 91.817853,115.461538 69.9745358,115.461538 L69.9745358,158 C51.720309,154.961538 -1.12999768e-14,139.769231 0,100.269231 C1.12999768e-14,60.7692308 0,60.7692332 0,30.3846153 C-1.12999768e-14,30.3846153 24.3389689,0 69.9745358,0 L69.9745358,36.4615385 Z M69.9745358,36.4615385 C48.1312185,36.4615385 30.4237112,54.1462909 30.4237112,75.9615385 C30.4237112,97.7767861 48.1312185,115.461538 69.9745358,115.461538 L69.9745358,36.4615385 Z" id="Combined-Shape"></path>
                                    <ellipse id="Oval-Copy-2" cx="69.9745358" cy="75.9615385" rx="27.3813401" ry="27.3461538"></ellipse>
                                </g>
                            </g>
                        </g>
                    </g>
                </g>
            </g>
        </g>
    </g>
</svg>