<?xml version="1.0" encoding="UTF-8"?>
<svg width="148px" height="169px" viewBox="0 0 148 169" version="1.1" xmlns="http://www.w3.org/2000/svg" xmlns:xlink="http://www.w3.org/1999/xlink">
    <!-- Generator: Sketch 48.2 (47327) - http://www.bohemiancoding.com/sketch -->
    <title>Artboard</title>
    <desc>Created with Sketch.</desc>
    <defs></defs>
    <g id="kryptonite_by_kryptco" stroke="none" stroke-width="1" fill="none" fill-rule="evenodd">
        <g id="Artboard" fill="#5BC894">
            <g id="Group-3" transform="translate(-1.000000, 24.000000)">
                <g id="Group-2" transform="translate(26.000000, 0.000000)">
                    <g id="shield" transform="translate(0.519337, 0.375691)">
                        <g id="Icon">
                            <g id="Logo-corrections">
                                <g id="Kryptonite_Icon_WhiteOnGreen">
                                    <g id="Group">
                                        <path d="M47.6345991,0 C78.7006421,0 95.2691983,20.558861 95.2691983,20.558861 L95.2691983,67.8442414 C95.2691983,94.5707608 60.0610163,104.850191 47.6345991,106.906077 L47.6345991,0 L47.6345991,0 Z M47.6345991,24.6706333 C62.5042606,24.6706333 74.558503,36.6365036 74.558503,51.3971526 C74.558503,66.1578016 62.5042606,78.1236719 47.6345991,78.1236719 L47.6345991,106.906077 C35.2081819,104.850191 -7.69236782e-15,94.5707608 0,67.8442414 C7.69236782e-15,41.1177221 0,41.1177237 0,20.558861 C-7.69236782e-15,20.558861 16.5685562,0 47.6345991,0 L47.6345991,24.6706333 Z M47.6345991,24.6706333 C32.7649376,24.6706333 20.7106953,36.6365036 20.7106953,51.3971526 C20.7106953,66.1578016 32.7649376,78.1236719 47.6345991,78.1236719 L47.6345991,24.6706333 Z" id="Combined-Shape"></path>
                                        <ellipse id="Oval-Copy-2" cx="47.6345991" cy="51.3971526" rx="18.6396257" ry="18.5029749"></ellipse>
                                    </g>
                                </g>
                            </g>
                        </g>
                    </g>
                </g>
                <text id="krypt.co" font-family="SourceCodePro-Bold, Source Code Pro" font-size="24" font-weight="bold">
                    <tspan x="17.4" y="134">krypt.co</tspan>
                </text>
            </g>
        </g>
    </g>
</svg>