<?xml version="1.0" encoding="UTF-8"?>
<svg width="98px" height="145px" viewBox="0 0 98 145" version="1.1" xmlns="http://www.w3.org/2000/svg" xmlns:xlink="http://www.w3.org/1999/xlink">
    <!-- Generator: Sketch 48.2 (47327) - http://www.bohemiancoding.com/sketch -->
    <title>Artboard</title>
    <desc>Created with Sketch.</desc>
    <defs></defs>
    <g id="kryptonite_by_kryptco" stroke="none" stroke-width="1" fill="none" fill-rule="evenodd">
        <g id="Artboard" fill="#5BC894">
            <g id="Group-5" transform="translate(2.000000, 10.000000)">
                <g id="Group-4" transform="translate(2.000000, 0.000000)">
                    <g id="Group-3">
                        <g id="Group-2">
                            <g id="shield" transform="translate(0.484849, 0.353644)">
                                <g id="Icon">
                                    <g id="Logo-corrections">
                                        <g id="Kryptonite_Icon_WhiteOnGreen">
                                            <g id="Group">
                                                <path d="M44.4713134,100.632609 C32.8701011,98.6973662 -7.18153833e-15,89.0211538 0,63.8630017 C7.18153833e-15,38.7048495 0,38.704851 0,19.3524247 C-7.18153833e-15,19.3524247 15.4682829,0 44.4713134,0 C73.4743438,0 88.9426267,19.3524247 88.9426267,19.3524247 L88.9426267,63.8630017 C88.9426267,89.0211538 56.0725256,98.6973662 44.4713134,100.632609 Z M44.4713134,73.539214 C58.3535206,73.539214 69.6072731,62.2755256 69.6072731,48.3810619 C69.6072731,34.4865981 58.3535206,23.2229097 44.4713134,23.2229097 C30.5891061,23.2229097 19.3353537,34.4865981 19.3353537,48.3810619 C19.3353537,62.2755256 30.5891061,73.539214 44.4713134,73.539214 Z" id="Combined-Shape"></path>
                                                <ellipse id="Oval-Copy-2" cx="44.4713134" cy="48.3810619" rx="17.4018183" ry="17.4171823"></ellipse>
                                            </g>
                                        </g>
                                    </g>
                                </g>
                            </g>
                        </g>
                    </g>
                </g>
                <path d="M0,108 L2.94,108 L2.94,116.1 L3.02,116.1 L6.66,112.1 L9.88,112.1 L6.12,116.18 L10.18,122.02 L7,122.02 L4.4,117.98 L2.94,119.52 L2.94,122.02 L0,122.02 L0,108 Z M12.8,112.1 L15.2,112.1 L15.44,114.26 L15.5,114.26 C15.9933358,113.446663 16.5866632,112.843335 17.28,112.45 C17.9733368,112.056665 18.719996,111.86 19.52,111.86 C19.9600022,111.86 20.3166653,111.893333 20.59,111.96 C20.8633347,112.026667 21.1466652,112.126666 21.44,112.26 L20.84,114.72 C20.5333318,114.626666 20.2566679,114.556667 20.01,114.51 C19.7633321,114.463333 19.4533352,114.44 19.08,114.44 C18.4666636,114.44 17.8633363,114.619998 17.27,114.98 C16.6766637,115.340002 16.1666688,115.966662 15.74,116.86 L15.74,122.02 L12.8,122.02 L12.8,112.1 Z M24.34,123.46 C24.5933346,123.54 24.853332,123.58 25.12,123.58 C25.6933362,123.58 26.1433317,123.460001 26.47,123.22 C26.7966683,122.979999 27.0399992,122.666669 27.2,122.28 L27.4,121.76 L23.1,112.1 L26.02,112.1 L27.68,116.36 C27.8666676,116.826669 28.0399992,117.309997 28.2,117.81 C28.3600008,118.310003 28.5199992,118.819997 28.68,119.34 L28.76,119.34 C28.893334,118.846664 29.0399992,118.350003 29.2,117.85 C29.3600008,117.349998 29.5133326,116.853336 29.66,116.36 L31.12,112.1 L33.9,112.1 L29.98,122.12 C29.7399988,122.74667 29.4800014,123.296664 29.2,123.77 C28.9199986,124.243336 28.6000018,124.636665 28.24,124.95 C27.8799982,125.263335 27.4633357,125.499999 26.99,125.66 C26.5166643,125.820001 25.9666698,125.9 25.34,125.9 C25.0466652,125.9 24.7733346,125.883334 24.52,125.85 C24.2666654,125.816667 24.0333344,125.766667 23.82,125.7 L24.34,123.46 Z M38.86,122.8 L38.86,125.7 L35.92,125.7 L35.92,112.1 L38.32,112.1 L38.54,113.1 L38.6,113.1 C39.000002,112.739998 39.4599974,112.443334 39.98,112.21 C40.5000026,111.976665 41.026664,111.86 41.56,111.86 C42.1733364,111.86 42.7266642,111.979999 43.22,112.22 C43.7133358,112.460001 44.1333316,112.799998 44.48,113.24 C44.8266684,113.680002 45.0899991,114.209997 45.27,114.83 C45.4500009,115.450003 45.54,116.139996 45.54,116.9 C45.54,117.753338 45.4200012,118.509997 45.18,119.17 C44.9399988,119.830003 44.620002,120.389998 44.22,120.85 C43.819998,121.310002 43.3633359,121.659999 42.85,121.9 C42.3366641,122.140001 41.8000028,122.26 41.24,122.26 C40.3333288,122.26 39.5066704,121.900004 38.76,121.18 L38.86,122.8 Z M38.86,119.2 C39.1400014,119.440001 39.4299985,119.61 39.73,119.71 C40.0300015,119.81 40.3066654,119.86 40.56,119.86 C41.1200028,119.86 41.5866648,119.630002 41.96,119.17 C42.3333352,118.709998 42.52,117.966672 42.52,116.94 C42.52,115.153324 41.9133394,114.26 40.7,114.26 C40.0733302,114.26 39.460003,114.566664 38.86,115.18 L38.86,119.2 Z M49.96,114.4 L47.46,114.4 L47.46,112.22 L50.1,112.1 L50.48,109.46 L52.9,109.46 L52.9,112.1 L57.1,112.1 L57.1,114.4 L52.9,114.4 L52.9,117.88 C52.9,118.640004 53.066665,119.176665 53.4,119.49 C53.733335,119.803335 54.2599964,119.96 54.98,119.96 C55.3666686,119.96 55.7199984,119.926667 56.04,119.86 C56.3600016,119.793333 56.6666652,119.706667 56.96,119.6 L57.48,121.72 C57.0399978,121.853334 56.5500027,121.976666 56.01,122.09 C55.4699973,122.203334 54.8800032,122.26 54.24,122.26 C53.4533294,122.26 52.7866694,122.153334 52.24,121.94 C51.6933306,121.726666 51.2500017,121.430002 50.91,121.05 C50.5699983,120.669998 50.3266674,120.213336 50.18,119.68 C50.0333326,119.146664 49.96,118.553337 49.96,117.9 L49.96,114.4 Z M62.16,119.92 C62.16,119.586665 62.2166661,119.276668 62.33,118.99 C62.4433339,118.703332 62.599999,118.453334 62.8,118.24 C63.000001,118.026666 63.2433319,117.860001 63.53,117.74 C63.8166681,117.619999 64.1333316,117.56 64.48,117.56 C64.8266684,117.56 65.1433319,117.619999 65.43,117.74 C65.7166681,117.860001 65.959999,118.026666 66.16,118.24 C66.360001,118.453334 66.5166661,118.703332 66.63,118.99 C66.7433339,119.276668 66.8,119.586665 66.8,119.92 C66.8,120.58667 66.5866688,121.143331 66.16,121.59 C65.7333312,122.036669 65.1733368,122.26 64.48,122.26 C63.7866632,122.26 63.2266688,122.036669 62.8,121.59 C62.3733312,121.143331 62.16,120.58667 62.16,119.92 Z M71.82,117.06 C71.82,116.233329 71.9766651,115.49667 72.29,114.85 C72.6033349,114.20333 73.0233307,113.660002 73.55,113.22 C74.0766693,112.779998 74.6866632,112.443334 75.38,112.21 C76.0733368,111.976665 76.7999962,111.86 77.56,111.86 C78.3466706,111.86 79.0566635,111.986665 79.69,112.24 C80.3233365,112.493335 80.8533312,112.813331 81.28,113.2 L79.92,115.02 C79.186663,114.499997 78.453337,114.24 77.72,114.24 C76.8666624,114.24 76.173336,114.493331 75.64,115 C75.106664,115.506669 74.84,116.193329 74.84,117.06 C74.84,117.926671 75.0966641,118.613331 75.61,119.12 C76.1233359,119.626669 76.7933292,119.88 77.62,119.88 C78.1400026,119.88 78.6199978,119.786668 79.06,119.6 C79.5000022,119.413332 79.8933316,119.193335 80.24,118.94 L81.44,120.8 C80.839997,121.306669 80.1766703,121.676665 79.45,121.91 C78.7233297,122.143334 78.0200034,122.26 77.34,122.26 C76.5533294,122.26 75.82667,122.143334 75.16,121.91 C74.49333,121.676665 73.9100025,121.340002 73.41,120.9 C72.9099975,120.459998 72.5200014,119.91667 72.24,119.27 C71.9599986,118.62333 71.82,117.886671 71.82,117.06 Z M83.42,117.06 C83.42,116.233329 83.5599986,115.49667 83.84,114.85 C84.1200014,114.20333 84.4966643,113.660002 84.97,113.22 C85.4433357,112.779998 85.9833303,112.443334 86.59,112.21 C87.1966697,111.976665 87.8266634,111.86 88.48,111.86 C89.1333366,111.86 89.7633303,111.976665 90.37,112.21 C90.9766697,112.443334 91.5166643,112.779998 91.99,113.22 C92.4633357,113.660002 92.8399986,114.20333 93.12,114.85 C93.4000014,115.49667 93.54,116.233329 93.54,117.06 C93.54,117.886671 93.4000014,118.62333 93.12,119.27 C92.8399986,119.91667 92.4633357,120.459998 91.99,120.9 C91.5166643,121.340002 90.9766697,121.676665 90.37,121.91 C89.7633303,122.143334 89.1333366,122.26 88.48,122.26 C87.8266634,122.26 87.1966697,122.143334 86.59,121.91 C85.9833303,121.676665 85.4433357,121.340002 84.97,120.9 C84.4966643,120.459998 84.1200014,119.91667 83.84,119.27 C83.5599986,118.62333 83.42,117.886671 83.42,117.06 Z M86.44,117.06 C86.44,117.926671 86.6099983,118.613331 86.95,119.12 C87.2900017,119.626669 87.7999966,119.88 88.48,119.88 C89.1600034,119.88 89.6699983,119.626669 90.01,119.12 C90.3500017,118.613331 90.52,117.926671 90.52,117.06 C90.52,116.193329 90.3500017,115.506669 90.01,115 C89.6699983,114.493331 89.1600034,114.24 88.48,114.24 C87.7999966,114.24 87.2900017,114.493331 86.95,115 C86.6099983,115.506669 86.44,116.193329 86.44,117.06 Z" id="krypt.co"></path>
            </g>
        </g>
    </g>
</svg>