<?xml version="1.0" encoding="UTF-8"?>
<svg width="129px" height="109px" viewBox="0 0 129 109" version="1.1" xmlns="http://www.w3.org/2000/svg" xmlns:xlink="http://www.w3.org/1999/xlink">
    <!-- Generator: Sketch 48.2 (47327) - http://www.bohemiancoding.com/sketch -->
    <title>Artboard</title>
    <desc>Created with Sketch.</desc>
    <defs></defs>
    <g id="kryptonite_by_kryptco" stroke="none" stroke-width="1" fill="none" fill-rule="evenodd">
        <g id="Artboard">
            <g id="Group-4" transform="translate(10.000000, 10.000000)">
                <g id="Group-3" transform="translate(29.000000, 0.000000)" fill="#5BC894">
                    <g id="Group-2">
                        <g id="shield" transform="translate(0.280135, 0.204559)">
                            <g id="Icon">
                                <g id="Logo-corrections">
                                    <g id="Kryptonite_Icon_WhiteOnGreen">
                                        <g id="Group">
                                            <path d="M25.6945366,58.2090579 C18.991614,57.089653 -4.14933326e-15,51.4926282 0,36.9403637 C4.14933326e-15,22.3880992 0,22.3881001 0,11.1940496 C-4.14933326e-15,11.1940496 8.93723011,0 25.6945366,0 C42.4518431,0 51.3890732,11.1940496 51.3890732,11.1940496 L51.3890732,36.9403637 C51.3890732,51.4926282 32.3974592,57.089653 25.6945366,58.2090579 Z M25.6945366,42.5373885 C33.7153674,42.5373885 40.2175356,36.0221178 40.2175356,27.985124 C40.2175356,19.9481303 33.7153674,13.4328595 25.6945366,13.4328595 C17.6737058,13.4328595 11.1715377,19.9481303 11.1715377,27.985124 C11.1715377,36.0221178 17.6737058,42.5373885 25.6945366,42.5373885 Z" id="Combined-Shape"></path>
                                            <ellipse id="Oval-Copy-2" cx="25.6945366" cy="27.985124" rx="10.0543839" ry="10.0746446"></ellipse>
                                        </g>
                                    </g>
                                </g>
                            </g>
                        </g>
                    </g>
                </g>
                <g id="Group-5" transform="translate(0.000000, 7.000000)" fill="#6D7D92">
                    <path d="M5.53589744,38.4046512 C5.53589744,37.4418557 5.55769209,36.5860503 5.60128205,35.8372093 C5.64487201,35.0883683 5.69572621,34.3662825 5.75384615,33.6709302 C5.8119661,32.9755779 5.86282029,32.280236 5.90641026,31.5848837 C5.95000022,30.8895314 5.97179487,30.1139578 5.97179487,29.2581395 C5.97179487,28.7945713 5.88461626,28.3310101 5.71025641,27.8674419 C5.53589656,27.4038737 5.21624164,26.9848856 4.75128205,26.6104651 C4.28632246,26.2360446 3.66880727,25.9329469 2.89871795,25.7011628 C2.12862863,25.4693787 1.16239897,25.3356591 0,25.3 L0,20.7 C1.16239897,20.6643409 2.12862863,20.5306213 2.89871795,20.2988372 C3.66880727,20.0670531 4.28632246,19.7639554 4.75128205,19.3895349 C5.21624164,19.0151144 5.53589656,18.5961263 5.71025641,18.1325581 C5.88461626,17.6689899 5.97179487,17.2054287 5.97179487,16.7418605 C5.97179487,15.9217013 5.95000022,15.1550423 5.90641026,14.4418605 C5.86282029,13.7286786 5.8119661,13.0244221 5.75384615,12.3290698 C5.69572621,11.6337175 5.64487201,10.902717 5.60128205,10.1360465 C5.55769209,9.36937601 5.53589744,8.52248526 5.53589744,7.59534884 C5.53589744,4.7069623 6.18973705,2.71899769 7.4974359,1.63139535 C8.80513474,0.543793012 10.8538322,0 13.6435897,0 L17,0 L17,4.17209302 L15.2128205,4.17209302 C14.3119613,4.17209302 13.5709431,4.22558086 12.9897436,4.33255814 C12.4085441,4.43953542 11.9581213,4.63565749 11.6384615,4.92093023 C11.3188018,5.20620298 11.0935904,5.58953248 10.9628205,6.07093023 C10.8320506,6.55232799 10.7666667,7.16743812 10.7666667,7.91627907 C10.7666667,9.34264279 10.8029911,10.7511558 10.875641,12.1418605 C10.948291,13.5325651 10.9846154,15.0302245 10.9846154,16.6348837 C10.9846154,18.667452 10.6504307,20.1383675 9.98205128,21.0476744 C9.31367187,21.9569813 8.19487964,22.5720914 6.62564103,22.8930233 L6.62564103,23.1069767 C8.19487964,23.4279086 9.31367187,24.0430187 9.98205128,24.9523256 C10.6504307,25.8616325 10.9846154,27.332548 10.9846154,29.3651163 C10.9846154,31.0054346 10.948291,32.503094 10.875641,33.8581395 C10.8029911,35.2131851 10.7666667,36.6216981 10.7666667,38.0837209 C10.7666667,38.8325619 10.8320506,39.447672 10.9628205,39.9290698 C11.0935904,40.4104675 11.3188018,40.793797 11.6384615,41.0790698 C11.9581213,41.3643425 12.4085441,41.5604646 12.9897436,41.6674419 C13.5709431,41.7744191 14.3119613,41.827907 15.2128205,41.827907 L17,41.827907 L17,46 L13.6435897,46 C10.8538322,46 8.80513474,45.456207 7.4974359,44.3686047 C6.18973705,43.2810023 5.53589744,41.2930377 5.53589744,38.4046512 Z" id="{"></path>
                    <path d="M104.464103,38.4046512 C104.464103,41.2930377 103.810263,43.2810023 102.502564,44.3686047 C101.194865,45.456207 99.1461678,46 96.3564103,46 L93,46 L93,41.827907 L94.7871795,41.827907 C95.6880387,41.827907 96.4290569,41.7744191 97.0102564,41.6674419 C97.5914559,41.5604646 98.0418787,41.3643425 98.3615385,41.0790698 C98.6811982,40.793797 98.9064096,40.4104675 99.0371795,39.9290698 C99.1679494,39.447672 99.2333333,38.8325619 99.2333333,38.0837209 C99.2333333,36.6216981 99.1970089,35.2131851 99.124359,33.8581395 C99.051709,32.503094 99.0153846,31.0054346 99.0153846,29.3651163 C99.0153846,27.332548 99.3495693,25.8616325 100.017949,24.9523256 C100.686328,24.0430187 101.80512,23.4279086 103.374359,23.1069767 L103.374359,22.8930233 C101.80512,22.5720914 100.686328,21.9569813 100.017949,21.0476744 C99.3495693,20.1383675 99.0153846,18.667452 99.0153846,16.6348837 C99.0153846,15.0302245 99.051709,13.5325651 99.124359,12.1418605 C99.1970089,10.7511558 99.2333333,9.34264279 99.2333333,7.91627907 C99.2333333,7.16743812 99.1679494,6.55232799 99.0371795,6.07093023 C98.9064096,5.58953248 98.6811982,5.20620298 98.3615385,4.92093023 C98.0418787,4.63565749 97.5914559,4.43953542 97.0102564,4.33255814 C96.4290569,4.22558086 95.6880387,4.17209302 94.7871795,4.17209302 L93,4.17209302 L93,0 L96.3564103,0 C99.1461678,0 101.194865,0.543793012 102.502564,1.63139535 C103.810263,2.71899769 104.464103,4.7069623 104.464103,7.59534884 C104.464103,8.52248526 104.442308,9.36937601 104.398718,10.1360465 C104.355128,10.902717 104.304274,11.6337175 104.246154,12.3290698 C104.188034,13.0244221 104.13718,13.7286786 104.09359,14.4418605 C104.05,15.1550423 104.028205,15.9217013 104.028205,16.7418605 C104.028205,17.2054287 104.115384,17.6689899 104.289744,18.1325581 C104.464103,18.5961263 104.783758,19.0151144 105.248718,19.3895349 C105.713678,19.7639554 106.331193,20.0670531 107.101282,20.2988372 C107.871371,20.5306213 108.837601,20.6643409 110,20.7 L110,25.3 C108.837601,25.3356591 107.871371,25.4693787 107.101282,25.7011628 C106.331193,25.9329469 105.713678,26.2360446 105.248718,26.6104651 C104.783758,26.9848856 104.464103,27.4038737 104.289744,27.8674419 C104.115384,28.3310101 104.028205,28.7945713 104.028205,29.2581395 C104.028205,30.1139578 104.05,30.8895314 104.09359,31.5848837 C104.13718,32.280236 104.188034,32.9755779 104.246154,33.6709302 C104.304274,34.3662825 104.355128,35.0883683 104.398718,35.8372093 C104.442308,36.5860503 104.464103,37.4418557 104.464103,38.4046512 Z" id="{"></path>
                </g>
            </g>
            <path d="M30,85.24 L33.54,85.24 C34.4866714,85.24 35.3466628,85.3666654 36.12,85.62 C36.8933372,85.8733346 37.5533306,86.2633307 38.1,86.79 C38.6466694,87.3166693 39.0699985,87.9866626 39.37,88.8 C39.6700015,89.6133374 39.82,90.5799944 39.82,91.7 C39.82,92.8200056 39.6700015,93.7933292 39.37,94.62 C39.0699985,95.4466708 38.6500027,96.1299973 38.11,96.67 C37.5699973,97.2100027 36.9266704,97.613332 36.18,97.88 C35.4333296,98.146668 34.6066712,98.28 33.7,98.28 L30,98.28 L30,85.24 Z M33.38,95.9 C33.8866692,95.9 34.3499979,95.8266674 34.77,95.68 C35.1900021,95.5333326 35.5499985,95.2966683 35.85,94.97 C36.1500015,94.6433317 36.3833325,94.213336 36.55,93.68 C36.7166675,93.146664 36.8,92.4866706 36.8,91.7 C36.8,90.9266628 36.7166675,90.2766693 36.55,89.75 C36.3833325,89.2233307 36.1500015,88.8033349 35.85,88.49 C35.5499985,88.1766651 35.1900021,87.953334 34.77,87.82 C34.3499979,87.686666 33.8866692,87.62 33.38,87.62 L32.96,87.62 L32.96,95.9 L33.38,95.9 Z M41.8,93.32 C41.8,92.5066626 41.9433319,91.7800032 42.23,91.14 C42.5166681,90.4999968 42.8999976,89.9566689 43.38,89.51 C43.8600024,89.0633311 44.4099969,88.7200012 45.03,88.48 C45.6500031,88.2399988 46.29333,88.12 46.96,88.12 C47.7200038,88.12 48.3933304,88.2399988 48.98,88.48 C49.5666696,88.7200012 50.0533314,89.0533312 50.44,89.48 C50.8266686,89.9066688 51.119999,90.4099971 51.32,90.99 C51.520001,91.5700029 51.62,92.1999966 51.62,92.88 C51.62,93.146668 51.6066668,93.3999988 51.58,93.64 C51.5533332,93.8800012 51.5266668,94.0599994 51.5,94.18 L44.82,94.18 C44.9266672,94.9266704 45.2499973,95.4633317 45.79,95.79 C46.3300027,96.1166683 46.966663,96.28 47.7,96.28 C48.1533356,96.28 48.5833313,96.2233339 48.99,96.11 C49.3966687,95.9966661 49.8199978,95.8266678 50.26,95.6 L51.22,97.36 C50.6599972,97.7200018 50.0333368,98.0033323 49.34,98.21 C48.6466632,98.4166677 47.96667,98.52 47.3,98.52 C46.5266628,98.52 45.80667,98.4033345 45.14,98.17 C44.47333,97.9366655 43.8933358,97.5966689 43.4,97.15 C42.9066642,96.7033311 42.5166681,96.1600032 42.23,95.52 C41.9433319,94.8799968 41.8,94.1466708 41.8,93.32 Z M48.96,92.24 C48.96,91.6799972 48.8066682,91.2266684 48.5,90.88 C48.1933318,90.5333316 47.7000034,90.36 47.02,90.36 C46.486664,90.36 46.0133354,90.5133318 45.6,90.82 C45.1866646,91.1266682 44.913334,91.5999968 44.78,92.24 L48.96,92.24 Z M53.32,88.36 L56.28,88.36 L57.84,93.04 C58.0000008,93.5466692 58.1533326,94.0533308 58.3,94.56 C58.4466674,95.0666692 58.5933326,95.5799974 58.74,96.1 L58.82,96.1 C58.9666674,95.5799974 59.1099993,95.0666692 59.25,94.56 C59.3900007,94.0533308 59.5399992,93.5466692 59.7,93.04 L61.26,88.36 L64.08,88.36 L60.44,98.28 L57.06,98.28 L53.32,88.36 Z M70.7,98.52 C69.9266628,98.52 69.2166699,98.3633349 68.57,98.05 C67.9233301,97.7366651 67.3700023,97.2866696 66.91,96.7 C66.4499977,96.1133304 66.0933346,95.4000042 65.84,94.56 C65.5866654,93.7199958 65.46,92.766672 65.46,91.7 C65.46,90.633328 65.5866654,89.6833375 65.84,88.85 C66.0933346,88.0166625 66.4499977,87.3166695 66.91,86.75 C67.3700023,86.1833305 67.9233301,85.7500015 68.57,85.45 C69.2166699,85.1499985 69.9266628,85 70.7,85 C71.4733372,85 72.1833301,85.1499985 72.83,85.45 C73.4766699,85.7500015 74.0299977,86.1866638 74.49,86.76 C74.9500023,87.3333362 75.3066654,88.0366625 75.56,88.87 C75.8133346,89.7033375 75.94,90.6466614 75.94,91.7 C75.94,92.766672 75.8133346,93.7199958 75.56,94.56 C75.3066654,95.4000042 74.9500023,96.1133304 74.49,96.7 C74.0299977,97.2866696 73.4766699,97.7366651 72.83,98.05 C72.1833301,98.3633349 71.4733372,98.52 70.7,98.52 Z M70.7,95.98 C71.3800034,95.98 71.919998,95.5966705 72.32,94.83 C72.720002,94.0633295 72.92,93.0200066 72.92,91.7 C72.92,90.3933268 72.720002,89.373337 72.32,88.64 C71.919998,87.906663 71.3800034,87.54 70.7,87.54 C70.0199966,87.54 69.480002,87.906663 69.08,88.64 C68.679998,89.373337 68.48,90.3933268 68.48,91.7 C68.48,93.0200066 68.679998,94.0633295 69.08,94.83 C69.480002,95.5966705 70.0199966,95.98 70.7,95.98 Z M81.08,99.06 L81.08,101.96 L78.14,101.96 L78.14,88.36 L80.54,88.36 L80.76,89.36 L80.82,89.36 C81.220002,88.9999982 81.6799974,88.7033345 82.2,88.47 C82.7200026,88.2366655 83.246664,88.12 83.78,88.12 C84.3933364,88.12 84.9466642,88.2399988 85.44,88.48 C85.9333358,88.7200012 86.3533316,89.0599978 86.7,89.5 C87.0466684,89.9400022 87.3099991,90.4699969 87.49,91.09 C87.6700009,91.7100031 87.76,92.3999962 87.76,93.16 C87.76,94.0133376 87.6400012,94.7699967 87.4,95.43 C87.1599988,96.0900033 86.840002,96.6499977 86.44,97.11 C86.039998,97.5700023 85.5833359,97.9199988 85.07,98.16 C84.5566641,98.4000012 84.0200028,98.52 83.46,98.52 C82.5533288,98.52 81.7266704,98.1600036 80.98,97.44 L81.08,99.06 Z M81.08,95.46 C81.3600014,95.7000012 81.6499985,95.8699995 81.95,95.97 C82.2500015,96.0700005 82.5266654,96.12 82.78,96.12 C83.3400028,96.12 83.8066648,95.8900023 84.18,95.43 C84.5533352,94.9699977 84.74,94.2266718 84.74,93.2 C84.74,91.4133244 84.1333394,90.52 82.92,90.52 C82.2933302,90.52 81.680003,90.8266636 81.08,91.44 L81.08,95.46 Z M91.08,95.16 C91.6533362,95.5200018 92.2299971,95.8066656 92.81,96.02 C93.3900029,96.2333344 94.01333,96.34 94.68,96.34 C95.3600034,96.34 95.8466652,96.2666674 96.14,96.12 C96.4333348,95.9733326 96.58,95.766668 96.58,95.5 C96.58,95.1933318 96.3366691,94.9433343 95.85,94.75 C95.3633309,94.5566657 94.720004,94.3466678 93.92,94.12 C93.4799978,93.9999994 93.0500021,93.8566675 92.63,93.69 C92.2099979,93.5233325 91.833335,93.3233345 91.5,93.09 C91.166665,92.8566655 90.8966677,92.5866682 90.69,92.28 C90.4833323,91.9733318 90.38,91.620002 90.38,91.22 C90.38,90.7666644 90.4866656,90.3466686 90.7,89.96 C90.9133344,89.5733314 91.2166647,89.246668 91.61,88.98 C92.0033353,88.713332 92.4833305,88.5033341 93.05,88.35 C93.6166695,88.1966659 94.2533298,88.12 94.96,88.12 C95.8400044,88.12 96.6433297,88.2633319 97.37,88.55 C98.0966703,88.8366681 98.7199974,89.146665 99.24,89.48 L97.92,91.24 C97.4666644,90.973332 97.0000024,90.7500009 96.52,90.57 C96.0399976,90.3899991 95.5400026,90.3 95.02,90.3 C94.3933302,90.3 93.9500013,90.366666 93.69,90.5 C93.4299987,90.633334 93.3,90.8266654 93.3,91.08 C93.3,91.2266674 93.366666,91.3599994 93.5,91.48 C93.633334,91.6000006 93.8133322,91.7066662 94.04,91.8 C94.2666678,91.8933338 94.5366651,91.9833329 94.85,92.07 C95.1633349,92.1566671 95.4933316,92.2466662 95.84,92.34 C96.3333358,92.473334 96.7999978,92.6233325 97.24,92.79 C97.6800022,92.9566675 98.066665,93.1533322 98.4,93.38 C98.733335,93.6066678 98.999999,93.8799984 99.2,94.2 C99.400001,94.5200016 99.5,94.8933312 99.5,95.32 C99.5,95.7733356 99.3933344,96.1933314 99.18,96.58 C98.9666656,96.9666686 98.6566687,97.3033319 98.25,97.59 C97.8433313,97.8766681 97.3366697,98.1033325 96.73,98.27 C96.1233303,98.4366675 95.420004,98.52 94.62,98.52 C93.7266622,98.52 92.8533376,98.3733348 92,98.08 C91.1466624,97.7866652 90.4000032,97.4266688 89.76,97 L91.08,95.16 Z" id="DevOps" fill="#6D7D92"></path>
            <path d="M56,74 L60.505618,74 L60.505618,74.7865169 L56.9325843,74.7865169 L56.9325843,77.2808989 L59.9550562,77.2808989 L59.9550562,78.0674157 L56.9325843,78.0674157 L56.9325843,81.3707865 L56,81.3707865 L56,74 Z M61.8988764,78.6516854 C61.8988764,78.1947543 61.9719094,77.7883913 62.1179775,77.4325843 C62.2640457,77.0767772 62.4606729,76.7752821 62.7078652,76.5280899 C62.9550574,76.2808976 63.2415714,76.0936336 63.5674157,75.9662921 C63.8932601,75.8389507 64.2359533,75.7752809 64.5955056,75.7752809 C64.955058,75.7752809 65.2977512,75.8389507 65.6235955,75.9662921 C65.9494398,76.0936336 66.2359538,76.2808976 66.4831461,76.5280899 C66.7303383,76.7752821 66.9269656,77.0767772 67.0730337,77.4325843 C67.2191019,77.7883913 67.2921348,78.1947543 67.2921348,78.6516854 C67.2921348,79.1011258 67.2191019,79.5037435 67.0730337,79.8595506 C66.9269656,80.2153576 66.7303383,80.5149801 66.4831461,80.758427 C66.2359538,81.0018739 65.9494398,81.1872653 65.6235955,81.3146067 C65.2977512,81.4419482 64.955058,81.505618 64.5955056,81.505618 C64.2359533,81.505618 63.8932601,81.4419482 63.5674157,81.3146067 C63.2415714,81.1872653 62.9550574,81.0018739 62.7078652,80.758427 C62.4606729,80.5149801 62.2640457,80.2153576 62.1179775,79.8595506 C61.9719094,79.5037435 61.8988764,79.1011258 61.8988764,78.6516854 Z M62.8539326,78.6516854 C62.8539326,78.9662937 62.8951307,79.2509351 62.9775281,79.505618 C63.0599255,79.7603009 63.1779019,79.9793998 63.3314607,80.1629213 C63.4850195,80.3464429 63.6685383,80.4887635 63.8820225,80.5898876 C64.0955067,80.6910117 64.333332,80.741573 64.5955056,80.741573 C64.8576792,80.741573 65.0955046,80.6910117 65.3089888,80.5898876 C65.522473,80.4887635 65.7059917,80.3464429 65.8595506,80.1629213 C66.0131094,79.9793998 66.1310857,79.7603009 66.2134831,79.505618 C66.2958806,79.2509351 66.3370787,78.9662937 66.3370787,78.6516854 C66.3370787,78.3370771 66.2958806,78.0505631 66.2134831,77.7921348 C66.1310857,77.5337066 66.0131094,77.3108624 65.8595506,77.1235955 C65.7059917,76.9363287 65.522473,76.7921353 65.3089888,76.6910112 C65.0955046,76.5898871 64.8576792,76.5393258 64.5955056,76.5393258 C64.333332,76.5393258 64.0955067,76.5898871 63.8820225,76.6910112 C63.6685383,76.7921353 63.4850195,76.9363287 63.3314607,77.1235955 C63.1779019,77.3108624 63.0599255,77.5337066 62.9775281,77.7921348 C62.8951307,78.0505631 62.8539326,78.3370771 62.8539326,78.6516854 Z M69.6067416,75.9101124 L70.3707865,75.9101124 L70.4494382,77.2022472 L70.4831461,77.2022472 C70.7677917,76.7602974 71.1179754,76.4119863 71.5337079,76.1573034 C71.9494403,75.9026204 72.4119825,75.7752809 72.9213483,75.7752809 C73.1235965,75.7752809 73.3108606,75.7921347 73.4831461,75.8258427 C73.6554316,75.8595507 73.8277145,75.9176026 74,76 L73.7865169,76.7977528 C73.5917593,76.7303367 73.4288396,76.6816481 73.2977528,76.6516854 C73.166666,76.6217227 72.9925104,76.6067416 72.7752809,76.6067416 C72.3632938,76.6067416 71.9681667,76.7247179 71.5898876,76.9606742 C71.2116086,77.1966304 70.8576796,77.5992481 70.5280899,78.1685393 L70.5280899,81.3707865 L69.6067416,81.3707865 L69.6067416,75.9101124 Z" id="For" fill="#6D7D92"></path>
        </g>
    </g>
</svg>