<?xml version="1.0" encoding="UTF-8" standalone="no"?>
<svg width="217px" height="52px" viewBox="0 0 217 52" version="1.1" xmlns="http://www.w3.org/2000/svg" xmlns:xlink="http://www.w3.org/1999/xlink">
    <!-- Generator: Sketch 40.1 (33804) - http://www.bohemiancoding.com/sketch -->
    <title>kryptonite-logo-green-on-white</title>
    <desc>Created with Sketch.</desc>
    <defs></defs>
    <g id="Static-images-for-website" stroke="none" stroke-width="1" fill="none" fill-rule="evenodd">
        <g id="kryptonite-logo-green-on-white">
            <g id="Group">
                <path d="M23,0 C38,0 46,10 46,10 C46,20.0000008 46,20 46,33 C46,46 29,51 23,52 L23,0 Z M23,0 C8,0 -3.55271368e-15,10 0,10 C0,20.0000008 3.55271368e-15,20 0,33 C-3.55271368e-15,46 17,51 23,52 L23,0 Z" id="Combined-Shape" fill="#5BC894"></path>
                <ellipse id="Oval-Copy" fill="#FFFFFF" cx="23" cy="25" rx="13" ry="13"></ellipse>
                <circle id="Oval-Copy-2" fill="#5BC894" cx="23" cy="25" r="9"></circle>
            </g>
            <path d="M70.624,33 L75.736,33 L69.088,23.16 L75.328,16.2 L70.384,16.2 L63.952,23.472 L63.952,16.2 L59.68,16.2 L59.68,33 L63.952,33 L63.952,28.872 L66.184,26.4 L70.624,33 Z M87.736,33 L92.584,33 L89.056,27.456 C91.024,26.472 92.104,24.624 92.104,22.056 C92.104,18.312 89.56,16.2 85.12,16.2 L77.608,16.2 L77.608,33 L81.88,33 L81.88,28.272 L85.12,28.272 L85.24,28.272 L87.736,33 Z M81.88,24.912 L81.88,19.56 L85.12,19.56 C86.968,19.56 88.048,20.448 88.048,22.2 C88.048,23.976 86.968,24.912 85.12,24.912 L81.88,24.912 Z M103.648,27.576 L109.744,16.2 L105.472,16.2 L101.512,23.52 L97.456,16.2 L93.184,16.2 L99.4,27.696 L99.4,33 L103.648,33 L103.648,27.576 Z M111.304,16.2 L111.304,33 L115.576,33 L115.576,28.272 L118.624,28.272 C122.92,28.272 125.392,25.992 125.392,22.056 C125.392,18.312 122.92,16.2 118.624,16.2 L111.304,16.2 Z M115.576,19.56 L118.408,19.56 C120.28,19.56 121.36,20.448 121.36,22.2 C121.36,23.976 120.28,24.912 118.408,24.912 L115.576,24.912 L115.576,19.56 Z M140.464,19.632 L140.464,16.176 L126.112,16.176 L126.112,19.632 L131.128,19.632 L131.128,33 L135.4,33 L135.4,19.632 L140.464,19.632 Z M150.256,16.056 C145.072,16.056 141.184,19.68 141.184,24.576 C141.184,29.496 145.072,33.192 150.256,33.192 C155.464,33.192 159.352,29.472 159.352,24.576 C159.352,19.704 155.464,16.056 150.256,16.056 L150.256,16.056 Z M150.304,19.632 C152.896,19.632 154.96,21.768 154.96,24.6 C154.96,27.432 152.896,29.616 150.304,29.616 C147.736,29.616 145.552,27.432 145.552,24.6 C145.552,21.768 147.712,19.632 150.304,19.632 L150.304,19.632 Z M177.112,33 L177.112,16.2 L173.128,16.2 L173.128,26.568 L165.376,16.2 L161.608,16.2 L161.608,33 L165.616,33 L165.616,22.656 L173.344,33 L177.112,33 Z M184.744,33 L184.744,16.2 L180.472,16.2 L180.472,33 L184.744,33 Z M200.944,19.632 L200.944,16.176 L186.592,16.176 L186.592,19.632 L191.608,19.632 L191.608,33 L195.88,33 L195.88,19.632 L200.944,19.632 Z M215.92,19.56 L215.92,16.2 L202.768,16.2 L202.768,33 L216.184,33 L216.184,29.64 L207.04,29.64 L207.04,26.256 L215.056,26.256 L215.056,22.896 L207.04,22.896 L207.04,19.56 L215.92,19.56 Z" id="KRYPTONITE" fill="#5BC894"></path>
        </g>
    </g>
</svg>
