<?xml version="1.0" encoding="UTF-8"?>
<svg width="148px" height="169px" viewBox="0 0 148 169" version="1.1" xmlns="http://www.w3.org/2000/svg" xmlns:xlink="http://www.w3.org/1999/xlink">
    <!-- Generator: Sketch 48.2 (47327) - http://www.bohemiancoding.com/sketch -->
    <title>Artboard</title>
    <desc>Created with Sketch.</desc>
    <defs></defs>
    <g id="kryptonite_by_kryptco" stroke="none" stroke-width="1" fill="none" fill-rule="evenodd">
        <g id="Artboard" fill="#5BC894">
            <g id="Group-3" transform="translate(18.000000, 15.000000)">
                <g id="Group-2" transform="translate(8.000000, 0.000000)">
                    <g id="shield" transform="translate(0.519337, 0.375691)">
                        <g id="Icon">
                            <g id="Logo-corrections">
                                <g id="Kryptonite_Icon_WhiteOnGreen">
                                    <g id="Group">
                                        <path d="M47.6345991,0 C78.7006421,0 95.2691983,20.558861 95.2691983,20.558861 L95.2691983,67.8442414 C95.2691983,94.5707608 60.0610163,104.850191 47.6345991,106.906077 L47.6345991,0 L47.6345991,0 Z M47.6345991,24.6706333 C62.5042606,24.6706333 74.558503,36.6365036 74.558503,51.3971526 C74.558503,66.1578016 62.5042606,78.1236719 47.6345991,78.1236719 L47.6345991,106.906077 C35.2081819,104.850191 -7.69236782e-15,94.5707608 0,67.8442414 C7.69236782e-15,41.1177221 0,41.1177237 0,20.558861 C-7.69236782e-15,20.558861 16.5685562,0 47.6345991,0 L47.6345991,24.6706333 Z M47.6345991,24.6706333 C32.7649376,24.6706333 20.7106953,36.6365036 20.7106953,51.3971526 C20.7106953,66.1578016 32.7649376,78.1236719 47.6345991,78.1236719 L47.6345991,24.6706333 Z" id="Combined-Shape"></path>
                                        <ellipse id="Oval-Copy-2" cx="47.6345991" cy="51.3971526" rx="18.6396257" ry="18.5029749"></ellipse>
                                    </g>
                                </g>
                            </g>
                        </g>
                    </g>
                </g>
                <path d="M0,117 L3.528,117 L3.528,126.72 L3.624,126.72 L7.992,121.92 L11.856,121.92 L7.344,126.816 L12.216,133.824 L8.4,133.824 L5.28,128.976 L3.528,130.824 L3.528,133.824 L0,133.824 L0,117 Z M15.36,121.92 L18.24,121.92 L18.528,124.512 L18.6,124.512 C19.192003,123.535995 19.9039958,122.812002 20.736,122.34 C21.5680042,121.867998 22.4639952,121.632 23.424,121.632 C23.9520026,121.632 24.3799984,121.672 24.708,121.752 C25.0360016,121.832 25.3759982,121.951999 25.728,122.112 L25.008,125.064 C24.6399982,124.951999 24.3080015,124.868 24.012,124.812 C23.7159985,124.756 23.3440022,124.728 22.896,124.728 C22.1599963,124.728 21.4360036,124.943998 20.724,125.376 C20.0119964,125.808002 19.4000026,126.559995 18.888,127.632 L18.888,133.824 L15.36,133.824 L15.36,121.92 Z M29.208,135.552 C29.5120015,135.648 29.8239984,135.696 30.144,135.696 C30.8320034,135.696 31.371998,135.552001 31.764,135.264 C32.156002,134.975999 32.447999,134.600002 32.64,134.136 L32.88,133.512 L27.72,121.92 L31.224,121.92 L33.216,127.032 C33.4400011,127.592003 33.647999,128.171997 33.84,128.772 C34.032001,129.372003 34.223999,129.983997 34.416,130.608 L34.512,130.608 C34.6720008,130.015997 34.847999,129.420003 35.04,128.82 C35.232001,128.219997 35.4159991,127.624003 35.592,127.032 L37.344,121.92 L40.68,121.92 L35.976,133.944 C35.6879986,134.696004 35.3760017,135.355997 35.04,135.924 C34.7039983,136.492003 34.3200022,136.963998 33.888,137.34 C33.4559978,137.716002 32.9560028,137.999999 32.388,138.192 C31.8199972,138.384001 31.1600038,138.48 30.408,138.48 C30.0559982,138.48 29.7280015,138.46 29.424,138.42 C29.1199985,138.38 28.8400013,138.32 28.584,138.24 L29.208,135.552 Z M46.632,134.76 L46.632,138.24 L43.104,138.24 L43.104,121.92 L45.984,121.92 L46.248,123.12 L46.32,123.12 C46.8000024,122.687998 47.3519969,122.332001 47.976,122.052 C48.6000031,121.771999 49.2319968,121.632 49.872,121.632 C50.6080037,121.632 51.271997,121.775999 51.864,122.064 C52.456003,122.352001 52.9599979,122.759997 53.376,123.288 C53.7920021,123.816003 54.1079989,124.451996 54.324,125.196 C54.5400011,125.940004 54.648,126.767995 54.648,127.68 C54.648,128.704005 54.5040014,129.611996 54.216,130.404 C53.9279986,131.196004 53.5440024,131.867997 53.064,132.42 C52.5839976,132.972003 52.0360031,133.391999 51.42,133.68 C50.8039969,133.968001 50.1600034,134.112 49.488,134.112 C48.3999946,134.112 47.4080045,133.680004 46.512,132.816 L46.632,134.76 Z M46.632,130.44 C46.9680017,130.728001 47.3159982,130.931999 47.676,131.052 C48.0360018,131.172001 48.3679985,131.232 48.672,131.232 C49.3440034,131.232 49.9039978,130.956003 50.352,130.404 C50.8000022,129.851997 51.024,128.960006 51.024,127.728 C51.024,125.583989 50.2960073,124.512 48.84,124.512 C48.0879962,124.512 47.3520036,124.879996 46.632,125.616 L46.632,130.44 Z M59.952,124.68 L56.952,124.68 L56.952,122.064 L60.12,121.92 L60.576,118.752 L63.48,118.752 L63.48,121.92 L68.52,121.92 L68.52,124.68 L63.48,124.68 L63.48,128.856 C63.48,129.768005 63.679998,130.411998 64.08,130.788 C64.480002,131.164002 65.1119957,131.352 65.976,131.352 C66.4400023,131.352 66.8639981,131.312 67.248,131.232 C67.6320019,131.152 67.9999982,131.048001 68.352,130.92 L68.976,133.464 C68.4479974,133.624001 67.8600032,133.771999 67.212,133.908 C66.5639968,134.044001 65.8560038,134.112 65.088,134.112 C64.1439953,134.112 63.3440033,133.984001 62.688,133.728 C62.0319967,133.471999 61.500002,133.116002 61.092,132.66 C60.683998,132.203998 60.3920009,131.656003 60.216,131.016 C60.0399991,130.375997 59.952,129.664004 59.952,128.88 L59.952,124.68 Z M74.592,131.304 C74.592,130.903998 74.6599993,130.532002 74.796,130.188 C74.9320007,129.843998 75.1199988,129.544001 75.36,129.288 C75.6000012,129.031999 75.8919983,128.832001 76.236,128.688 C76.5800017,128.543999 76.9599979,128.472 77.376,128.472 C77.7920021,128.472 78.1719983,128.543999 78.516,128.688 C78.8600017,128.832001 79.1519988,129.031999 79.392,129.288 C79.6320012,129.544001 79.8199993,129.843998 79.956,130.188 C80.0920007,130.532002 80.16,130.903998 80.16,131.304 C80.16,132.104004 79.9040026,132.771997 79.392,133.308 C78.8799974,133.844003 78.2080042,134.112 77.376,134.112 C76.5439958,134.112 75.8720026,133.844003 75.36,133.308 C74.8479974,132.771997 74.592,132.104004 74.592,131.304 Z M86.184,127.872 C86.184,126.879995 86.3719981,125.996004 86.748,125.22 C87.1240019,124.443996 87.6279968,123.792003 88.26,123.264 C88.8920032,122.735997 89.6239958,122.332001 90.456,122.052 C91.2880042,121.771999 92.1599954,121.632 93.072,121.632 C94.0160047,121.632 94.8679962,121.783998 95.628,122.088 C96.3880038,122.392002 97.0239974,122.775998 97.536,123.24 L95.904,125.424 C95.0239956,124.799997 94.1440044,124.488 93.264,124.488 C92.2399949,124.488 91.4080032,124.791997 90.768,125.4 C90.1279968,126.008003 89.808,126.831995 89.808,127.872 C89.808,128.912005 90.1159969,129.735997 90.732,130.344 C91.3480031,130.952003 92.151995,131.256 93.144,131.256 C93.7680031,131.256 94.3439974,131.144001 94.872,130.92 C95.4000026,130.695999 95.8719979,130.432002 96.288,130.128 L97.728,132.36 C97.0079964,132.968003 96.2120044,133.411999 95.34,133.692 C94.4679956,133.972001 93.6240041,134.112 92.808,134.112 C91.8639953,134.112 90.992004,133.972001 90.192,133.692 C89.391996,133.411999 88.692003,133.008003 88.092,132.48 C87.491997,131.951997 87.0240017,131.300004 86.688,130.524 C86.3519983,129.747996 86.184,128.864005 86.184,127.872 Z M100.104,127.872 C100.104,126.879995 100.271998,125.996004 100.608,125.22 C100.944002,124.443996 101.395997,123.792003 101.964,123.264 C102.532003,122.735997 103.179996,122.332001 103.908,122.052 C104.636004,121.771999 105.391996,121.632 106.176,121.632 C106.960004,121.632 107.715996,121.771999 108.444,122.052 C109.172004,122.332001 109.819997,122.735997 110.388,123.264 C110.956003,123.792003 111.407998,124.443996 111.744,125.22 C112.080002,125.996004 112.248,126.879995 112.248,127.872 C112.248,128.864005 112.080002,129.747996 111.744,130.524 C111.407998,131.300004 110.956003,131.951997 110.388,132.48 C109.819997,133.008003 109.172004,133.411999 108.444,133.692 C107.715996,133.972001 106.960004,134.112 106.176,134.112 C105.391996,134.112 104.636004,133.972001 103.908,133.692 C103.179996,133.411999 102.532003,133.008003 101.964,132.48 C101.395997,131.951997 100.944002,131.300004 100.608,130.524 C100.271998,129.747996 100.104,128.864005 100.104,127.872 Z M103.728,127.872 C103.728,128.912005 103.931998,129.735997 104.34,130.344 C104.748002,130.952003 105.359996,131.256 106.176,131.256 C106.992004,131.256 107.603998,130.952003 108.012,130.344 C108.420002,129.735997 108.624,128.912005 108.624,127.872 C108.624,126.831995 108.420002,126.008003 108.012,125.4 C107.603998,124.791997 106.992004,124.488 106.176,124.488 C105.359996,124.488 104.748002,124.791997 104.34,125.4 C103.931998,126.008003 103.728,126.831995 103.728,127.872 Z" id="krypt.co"></path>
            </g>
        </g>
    </g>
</svg>