<?xml version="1.0" encoding="UTF-8"?>
<svg width="6400px" height="1200px" viewBox="0 0 6400 1200" version="1.1" xmlns="http://www.w3.org/2000/svg" xmlns:xlink="http://www.w3.org/1999/xlink" style="background: #FFFFFF;">
    <!-- Generator: Sketch 42 (36781) - http://www.bohemiancoding.com/sketch -->
    <title>website logo banner</title>
    <desc>Created with Sketch.</desc>
    <defs></defs>
    <g id="iPhone-Screens" stroke="none" stroke-width="1" fill="none" fill-rule="evenodd">
        <g id="website-logo-banner">
            <g id="Group-8" transform="translate(1424.000000, 159.000000)">
                <path d="M0.4,78.4 L119.6,78.4 L119.6,292 L122,292 L276.4,78.4 L406,78.4 L250,286.4 L421.2,600 L290.8,600 L180.4,380 L119.6,460 L119.6,600 L0.4,600 L0.4,78.4 Z M518.8,203.2 L614.8,203.2 L624.4,289.6 L626.8,289.6 C646.533432,257.066504 670.266528,232.933412 698,217.2 C725.733472,201.466588 755.59984,193.6 787.6,193.6 C805.200088,193.6 819.466612,194.93332 830.4,197.6 C841.333388,200.26668 852.666608,204.26664 864.4,209.6 L840.4,308 C828.133272,304.266648 817.066716,301.466676 807.2,299.6 C797.333284,297.733324 784.933408,296.8 770,296.8 C745.466544,296.8 721.333452,303.999928 697.6,318.4 C673.866548,332.800072 653.466752,357.866488 636.4,393.6 L636.4,600 L518.8,600 L518.8,203.2 Z M980.4,657.6 C990.533384,660.800016 1000.93328,662.4 1011.6,662.4 C1034.53345,662.4 1052.53327,657.600048 1065.6,648 C1078.66673,638.399952 1088.39997,625.866744 1094.8,610.4 L1102.8,589.6 L930.8,203.2 L1047.6,203.2 L1114,373.6 C1121.4667,392.26676 1128.39997,411.5999 1134.8,431.6 C1141.20003,451.6001 1147.59997,471.999896 1154,492.8 L1157.2,492.8 C1162.53336,473.066568 1168.39997,453.2001 1174.8,433.2 C1181.20003,413.1999 1187.3333,393.333432 1193.2,373.6 L1251.6,203.2 L1362.8,203.2 L1206,604 C1196.39995,629.066792 1186.00006,651.066572 1174.8,670 C1163.59994,688.933428 1150.80007,704.666604 1136.4,717.2 C1121.99993,729.733396 1105.33343,739.199968 1086.4,745.6 C1067.46657,752.000032 1045.46679,755.2 1020.4,755.2 C1008.66661,755.2 997.733384,754.53334 987.6,753.2 C977.466616,751.86666 968.133376,749.86668 959.6,747.2 L980.4,657.6 Z M1561.2,631.2 L1561.2,747.2 L1443.6,747.2 L1443.6,203.2 L1539.6,203.2 L1548.4,243.2 L1550.8,243.2 C1566.80008,228.799928 1585.1999,216.93338 1606,207.6 C1626.8001,198.26662 1647.86656,193.6 1669.2,193.6 C1693.73346,193.6 1715.86657,198.399952 1735.6,208 C1755.33343,217.600048 1772.13326,231.199912 1786,248.8 C1799.86674,266.400088 1810.39996,287.599876 1817.6,312.4 C1824.80004,337.200124 1828.4,364.799848 1828.4,395.2 C1828.4,429.333504 1823.60005,459.599868 1814,486 C1804.39995,512.400132 1791.60008,534.799908 1775.6,553.2 C1759.59992,571.600092 1741.33344,585.599952 1720.8,595.2 C1700.26656,604.800048 1678.80011,609.6 1656.4,609.6 C1620.13315,609.6 1587.06682,595.200144 1557.2,566.4 L1561.2,631.2 Z M1561.2,487.2 C1572.40006,496.800048 1583.99994,503.59998 1596,507.6 C1608.00006,511.60002 1619.06662,513.6 1629.2,513.6 C1651.60011,513.6 1670.26659,504.400092 1685.2,486 C1700.13341,467.599908 1707.6,437.866872 1707.6,396.8 C1707.6,325.332976 1683.33358,289.6 1634.8,289.6 C1609.73321,289.6 1585.20012,301.866544 1561.2,326.4 L1561.2,487.2 Z M2005.2,295.2 L1905.2,295.2 L1905.2,208 L2010.8,203.2 L2026,97.6 L2122.8,97.6 L2122.8,203.2 L2290.8,203.2 L2290.8,295.2 L2122.8,295.2 L2122.8,434.4 C2122.8,464.800152 2129.4666,486.266604 2142.8,498.8 C2156.1334,511.333396 2177.19986,517.6 2206,517.6 C2221.46674,517.6 2235.59994,516.26668 2248.4,513.6 C2261.20006,510.93332 2273.46661,507.466688 2285.2,503.2 L2306,588 C2288.39991,593.33336 2268.80011,598.266644 2247.2,602.8 C2225.59989,607.333356 2202.00013,609.6 2176.4,609.6 C2144.93318,609.6 2118.26678,605.333376 2096.4,596.8 C2074.53322,588.266624 2056.80007,576.400076 2043.2,561.2 C2029.59993,545.999924 2019.8667,527.73344 2014,506.4 C2008.1333,485.06656 2005.2,461.333464 2005.2,435.2 L2005.2,295.2 Z M2383.6,401.6 C2383.6,368.533168 2389.19994,339.066796 2400.4,313.2 C2411.60006,287.333204 2426.66657,265.600088 2445.6,248 C2464.53343,230.399912 2486.13321,216.93338 2510.4,207.6 C2534.66679,198.26662 2559.86654,193.6 2586,193.6 C2612.13346,193.6 2637.33321,198.26662 2661.6,207.6 C2685.86679,216.93338 2707.46657,230.399912 2726.4,248 C2745.33343,265.600088 2760.39994,287.333204 2771.6,313.2 C2782.80006,339.066796 2788.4,368.533168 2788.4,401.6 C2788.4,434.666832 2782.80006,464.133204 2771.6,490 C2760.39994,515.866796 2745.33343,537.599912 2726.4,555.2 C2707.46657,572.800088 2685.86679,586.26662 2661.6,595.6 C2637.33321,604.93338 2612.13346,609.6 2586,609.6 C2559.86654,609.6 2534.66679,604.93338 2510.4,595.6 C2486.13321,586.26662 2464.53343,572.800088 2445.6,555.2 C2426.66657,537.599912 2411.60006,515.866796 2400.4,490 C2389.19994,464.133204 2383.6,434.666832 2383.6,401.6 Z M2504.4,401.6 C2504.4,436.26684 2511.19993,463.733232 2524.8,484 C2538.40007,504.266768 2558.79986,514.4 2586,514.4 C2613.20014,514.4 2633.59993,504.266768 2647.2,484 C2660.80007,463.733232 2667.6,436.26684 2667.6,401.6 C2667.6,366.93316 2660.80007,339.466768 2647.2,319.2 C2633.59993,298.933232 2613.20014,288.8 2586,288.8 C2558.79986,288.8 2538.40007,298.933232 2524.8,319.2 C2511.19993,339.466768 2504.4,366.93316 2504.4,401.6 Z M2883.6,203.2 L2979.6,203.2 L2988.4,256 L2991.6,256 C3008.66675,238.933248 3028.26656,224.266728 3050.4,212 C3072.53344,199.733272 3098.53318,193.6 3128.4,193.6 C3173.20022,193.6 3205.9999,207.999856 3226.8,236.8 C3247.6001,265.600144 3258,305.066416 3258,355.2 L3258,600 L3140.4,600 L3140.4,370.4 C3140.4,343.7332 3136.13338,324.266728 3127.6,312 C3119.06662,299.733272 3103.86678,293.6 3082,293.6 C3065.99992,293.6 3052.00006,297.066632 3040,304 C3027.99994,310.933368 3015.06674,321.333264 3001.2,335.2 L3001.2,600 L2883.6,600 L2883.6,203.2 Z M3369.2,203.2 L3646,203.2 L3646,600 L3528.4,600 L3528.4,295.2 L3369.2,295.2 L3369.2,203.2 Z M3582,144.8 C3559.06655,144.8 3540.26674,138.400064 3525.6,125.6 C3510.93326,112.799936 3503.6,95.466776 3503.6,73.6 C3503.6,51.733224 3510.93326,34.000068 3525.6,20.4 C3540.26674,6.799932 3559.06655,0 3582,0 C3604.93345,0 3623.73326,6.799932 3638.4,20.4 C3653.06674,34.000068 3660.4,51.733224 3660.4,73.6 C3660.4,95.466776 3653.06674,112.799936 3638.4,125.6 C3623.73326,138.400064 3604.93345,144.8 3582,144.8 Z M3925.2,295.2 L3825.2,295.2 L3825.2,208 L3930.8,203.2 L3946,97.6 L4042.8,97.6 L4042.8,203.2 L4210.8,203.2 L4210.8,295.2 L4042.8,295.2 L4042.8,434.4 C4042.8,464.800152 4049.4666,486.266604 4062.8,498.8 C4076.1334,511.333396 4097.19986,517.6 4126,517.6 C4141.46674,517.6 4155.59994,516.26668 4168.4,513.6 C4181.20006,510.93332 4193.46661,507.466688 4205.2,503.2 L4226,588 C4208.39991,593.33336 4188.80011,598.266644 4167.2,602.8 C4145.59989,607.333356 4122.00013,609.6 4096.4,609.6 C4064.93318,609.6 4038.26678,605.333376 4016.4,596.8 C3994.53322,588.266624 3976.80007,576.400076 3963.2,561.2 C3949.59993,545.999924 3939.8667,527.73344 3934,506.4 C3928.1333,485.06656 3925.2,461.333464 3925.2,435.2 L3925.2,295.2 Z M4310,401.6 C4310,369.066504 4315.73328,340.000128 4327.2,314.4 C4338.66672,288.799872 4353.9999,267.066756 4373.2,249.2 C4392.4001,231.333244 4414.39988,217.600048 4439.2,208 C4464.00012,198.399952 4489.7332,193.6 4516.4,193.6 C4546.80015,193.6 4573.73322,198.399952 4597.2,208 C4620.66678,217.600048 4640.13326,230.933248 4655.6,248 C4671.06674,265.066752 4682.79996,285.199884 4690.8,308.4 C4698.80004,331.600116 4702.8,356.799864 4702.8,384 C4702.8,394.66672 4702.26667,404.799952 4701.2,414.4 C4700.13333,424.000048 4699.06667,431.199976 4698,436 L4430.8,436 C4435.06669,465.866816 4447.99989,487.333268 4469.6,500.4 C4491.20011,513.466732 4516.66652,520 4546,520 C4564.13342,520 4581.33325,517.733356 4597.6,513.2 C4613.86675,508.666644 4630.79991,501.866712 4648.4,492.8 L4686.8,563.2 C4664.39989,577.600072 4639.33347,588.933292 4611.6,597.2 C4583.86653,605.466708 4556.6668,609.6 4530,609.6 C4499.06651,609.6 4470.2668,604.93338 4443.6,595.6 C4416.9332,586.26662 4393.73343,572.666756 4374,554.8 C4354.26657,536.933244 4338.66672,515.200128 4327.2,489.6 C4315.73328,463.999872 4310,434.666832 4310,401.6 Z M4596.4,358.4 C4596.4,335.999888 4590.26673,317.866736 4578,304 C4565.73327,290.133264 4546.00014,283.2 4518.8,283.2 C4497.46656,283.2 4478.53342,289.333272 4462,301.6 C4445.46658,313.866728 4434.53336,332.799872 4429.2,358.4 L4596.4,358.4 Z" id="Kryptonite" fill="#5BC894"></path>
                <path d="M2143.2,670.67864 L2176,670.67864 L2176,748.27864 L2175.2,785.87864 C2184.53338,776.811928 2194.99994,769.612 2206.6,764.27864 C2218.20006,758.94528 2229.73328,756.27864 2241.2,756.27864 C2254.26673,756.27864 2265.86662,758.61195 2276,763.27864 C2286.13338,767.94533 2294.59997,774.61193 2301.4,783.27864 C2308.20003,791.94535 2313.33332,802.345246 2316.8,814.47864 C2320.26668,826.612034 2322,840.145232 2322,855.07864 C2322,871.612056 2319.60002,886.411908 2314.8,899.47864 C2309.99998,912.545372 2303.53337,923.611928 2295.4,932.67864 C2287.26663,941.745352 2277.86672,948.61195 2267.2,953.27864 C2256.53328,957.94533 2245.46672,960.27864 2234,960.27864 C2224.66662,960.27864 2214.60005,957.94533 2203.8,953.27864 C2192.99995,948.61195 2182.93338,942.145348 2173.6,933.87864 L2172.4,933.87864 L2169.6,955.47864 L2143.2,955.47864 L2143.2,670.67864 Z M2176,909.87864 C2185.33338,918.145348 2194.73329,924.011956 2204.2,927.47864 C2213.66671,930.945324 2221.86663,932.67864 2228.8,932.67864 C2237.33338,932.67864 2245.19996,930.878658 2252.4,927.27864 C2259.60004,923.678622 2265.86664,918.612006 2271.2,912.07864 C2276.53336,905.545274 2280.66665,897.478688 2283.6,887.87864 C2286.53335,878.278592 2288,867.4787 2288,855.47864 C2288,844.81192 2286.93334,835.078684 2284.8,826.27864 C2282.66666,817.478596 2279.40002,809.945338 2275,803.67864 C2270.59998,797.411942 2264.93337,792.545324 2258,789.07864 C2251.06663,785.611956 2242.80005,783.87864 2233.2,783.87864 C2224.66662,783.87864 2215.53338,786.21195 2205.8,790.87864 C2196.06662,795.54533 2186.13338,802.945256 2176,813.07864 L2176,909.87864 Z M2379.6,1009.07864 C2382.26668,1009.87864 2385.13332,1010.5453 2388.2,1011.07864 C2391.26668,1011.61198 2394.26665,1011.87864 2397.2,1011.87864 C2410.80007,1011.87864 2421.86662,1007.94535 2430.4,1000.07864 C2438.93338,992.211934 2445.59998,982.2787 2450.4,970.27864 L2456.4,955.87864 L2365.6,761.07864 L2398.8,761.07864 L2446.4,868.67864 C2450.13335,877.212016 2454.06665,886.411924 2458.2,896.27864 C2462.33335,906.145356 2466.39998,915.74526 2470.4,925.07864 L2472,925.07864 C2475.46668,915.74526 2478.99998,906.212022 2482.6,896.47864 C2486.20002,886.745258 2489.59998,877.478684 2492.8,868.67864 L2535.2,761.07864 L2566.4,761.07864 L2480.8,971.47864 C2477.06665,981.078688 2472.80002,990.011932 2468,998.27864 C2463.19998,1006.54535 2457.4667,1013.67861 2450.8,1019.67864 C2444.1333,1025.67867 2436.46671,1030.41196 2427.8,1033.87864 C2419.13329,1037.34532 2409.33339,1039.07864 2398.4,1039.07864 C2388.79995,1039.07864 2380.2667,1037.74532 2372.8,1035.07864 L2379.6,1009.07864 Z M2868.4,670.67864 L2901.2,670.67864 L2901.2,863.47864 L2902.8,863.47864 L3007.6,761.07864 L3045.2,761.07864 L2967.6,838.27864 L3055.6,955.47864 L3018.8,955.47864 L2947.2,858.27864 L2901.2,902.67864 L2901.2,955.47864 L2868.4,955.47864 L2868.4,670.67864 Z M3124.4,761.07864 L3151.6,761.07864 L3154.4,807.07864 L3155.6,807.07864 C3165.73338,791.345228 3178.19993,778.945352 3193,769.87864 C3207.80007,760.811928 3224.26658,756.27864 3242.4,756.27864 C3249.60004,756.27864 3256.26664,756.878634 3262.4,758.07864 C3268.53336,759.278646 3274.66664,761.345292 3280.8,764.27864 L3273.2,792.67864 C3266.26663,790.278628 3260.46669,788.545312 3255.8,787.47864 C3251.13331,786.411968 3244.93337,785.87864 3237.2,785.87864 C3222.53326,785.87864 3208.46673,790.078598 3195,798.47864 C3181.53327,806.878682 3168.93339,821.211872 3157.2,841.47864 L3157.2,955.47864 L3124.4,955.47864 L3124.4,761.07864 Z M3339.6,1009.07864 C3342.26668,1009.87864 3345.13332,1010.5453 3348.2,1011.07864 C3351.26668,1011.61198 3354.26665,1011.87864 3357.2,1011.87864 C3370.80007,1011.87864 3381.86662,1007.94535 3390.4,1000.07864 C3398.93338,992.211934 3405.59998,982.2787 3410.4,970.27864 L3416.4,955.87864 L3325.6,761.07864 L3358.8,761.07864 L3406.4,868.67864 C3410.13335,877.212016 3414.06665,886.411924 3418.2,896.27864 C3422.33335,906.145356 3426.39998,915.74526 3430.4,925.07864 L3432,925.07864 C3435.46668,915.74526 3438.99998,906.212022 3442.6,896.47864 C3446.20002,886.745258 3449.59998,877.478684 3452.8,868.67864 L3495.2,761.07864 L3526.4,761.07864 L3440.8,971.47864 C3437.06665,981.078688 3432.80002,990.011932 3428,998.27864 C3423.19998,1006.54535 3417.4667,1013.67861 3410.8,1019.67864 C3404.1333,1025.67867 3396.46671,1030.41196 3387.8,1033.87864 C3379.13329,1037.34532 3369.33339,1039.07864 3358.4,1039.07864 C3348.79995,1039.07864 3340.2667,1037.74532 3332.8,1035.07864 L3339.6,1009.07864 Z M3616,971.87864 L3616,1037.47864 L3583.2,1037.47864 L3583.2,761.07864 L3610.4,761.07864 L3613.2,785.87864 L3614.4,785.87864 C3623.46671,777.345264 3633.93327,770.278668 3645.8,764.67864 C3657.66673,759.078612 3669.59994,756.27864 3681.6,756.27864 C3694.66673,756.27864 3706.19995,758.61195 3716.2,763.27864 C3726.20005,767.94533 3734.59997,774.61193 3741.4,783.27864 C3748.20003,791.94535 3753.33332,802.345246 3756.8,814.47864 C3760.26668,826.612034 3762,840.278564 3762,855.47864 C3762,872.012056 3759.60002,886.745242 3754.8,899.67864 C3749.99998,912.612038 3743.53337,923.611928 3735.4,932.67864 C3727.26663,941.745352 3717.86672,948.61195 3707.2,953.27864 C3696.53328,957.94533 3685.33339,960.27864 3673.6,960.27864 C3664.53329,960.27864 3654.73339,958.078662 3644.2,953.67864 C3633.66661,949.278618 3624.00004,943.07868 3615.2,935.07864 L3616,971.87864 Z M3616,909.87864 C3625.33338,918.145348 3634.66662,924.011956 3644,927.47864 C3653.33338,930.945324 3661.3333,932.67864 3668,932.67864 C3685.60009,932.67864 3699.99994,925.878708 3711.2,912.27864 C3722.40006,898.678572 3728,879.745428 3728,855.47864 C3728,844.81192 3726.93334,835.078684 3724.8,826.27864 C3722.66666,817.478596 3719.40002,809.945338 3715,803.67864 C3710.59998,797.411942 3704.93337,792.545324 3698,789.07864 C3691.06663,785.611956 3682.80005,783.87864 3673.2,783.87864 C3664.66662,783.87864 3655.53338,786.21195 3645.8,790.87864 C3636.06662,795.54533 3626.13338,802.945256 3616,813.07864 L3616,909.87864 Z M3868.4,787.87864 L3813.6,787.87864 L3813.6,763.07864 L3869.6,761.07864 L3874,706.67864 L3901.2,706.67864 L3901.2,761.07864 L3996.8,761.07864 L3996.8,787.87864 L3901.2,787.87864 L3901.2,880.27864 C3901.2,889.078684 3901.99999,896.745274 3903.6,903.27864 C3905.20001,909.812006 3907.86665,915.345284 3911.6,919.87864 C3915.33335,924.411996 3920.39997,927.811962 3926.8,930.07864 C3933.20003,932.345318 3941.06662,933.47864 3950.4,933.47864 C3959.73338,933.47864 3968.1333,932.678648 3975.6,931.07864 C3983.0667,929.478632 3990.26663,927.34532 3997.2,924.67864 L4004.4,948.67864 C3995.59996,951.878656 3985.86672,954.611962 3975.2,956.87864 C3964.53328,959.145318 3953.86672,960.27864 3943.2,960.27864 C3929.0666,960.27864 3917.20005,958.345326 3907.6,954.47864 C3897.99995,950.611954 3890.33336,945.145342 3884.6,938.07864 C3878.86664,931.011938 3874.73335,922.545356 3872.2,912.67864 C3869.66665,902.811924 3868.4,891.8787 3868.4,879.87864 L3868.4,787.87864 Z M4113.6,926.67864 C4113.6,916.545256 4116.7333,908.345338 4123,902.07864 C4129.2667,895.811942 4136.93329,892.67864 4146,892.67864 C4155.06671,892.67864 4162.7333,895.811942 4169,902.07864 C4175.2667,908.345338 4178.4,916.545256 4178.4,926.67864 C4178.4,936.812024 4175.2667,944.945276 4169,951.07864 C4162.7333,957.212004 4155.06671,960.27864 4146,960.27864 C4136.93329,960.27864 4129.2667,957.212004 4123,951.07864 C4116.7333,944.945276 4113.6,936.812024 4113.6,926.67864 Z M4298,858.67864 C4298,842.411892 4300.86664,827.94537 4306.6,815.27864 C4312.33336,802.61191 4320.13328,791.878684 4330,783.07864 C4339.86672,774.278596 4351.39993,767.611996 4364.6,763.07864 C4377.80007,758.545284 4391.73326,756.27864 4406.4,756.27864 C4422.40008,756.27864 4436.19994,759.078612 4447.8,764.67864 C4459.40006,770.278668 4469.19996,776.945268 4477.2,784.67864 L4460.8,805.87864 C4452.79996,798.945272 4444.46671,793.47866 4435.8,789.47864 C4427.13329,785.47862 4417.73338,783.47864 4407.6,783.47864 C4396.39994,783.47864 4386.13338,785.278622 4376.8,788.87864 C4367.46662,792.478658 4359.53337,797.61194 4353,804.27864 C4346.46663,810.94534 4341.33335,818.878594 4337.6,828.07864 C4333.86665,837.278686 4332,847.478584 4332,858.67864 C4332,869.878696 4333.79998,880.011928 4337.4,889.07864 C4341.00002,898.145352 4346.06663,905.945274 4352.6,912.47864 C4359.13337,919.012006 4366.99995,924.078622 4376.2,927.67864 C4385.40005,931.278658 4395.59994,933.07864 4406.8,933.07864 C4418.80006,933.07864 4429.79995,930.74533 4439.8,926.07864 C4449.80005,921.41195 4458.93329,915.612008 4467.2,908.67864 L4481.6,929.87864 C4470.93328,939.478688 4459.00007,946.94528 4445.8,952.27864 C4432.59993,957.612 4418.80007,960.27864 4404.4,960.27864 C4389.19992,960.27864 4375.1334,958.011996 4362.2,953.47864 C4349.2666,948.945284 4338.00005,942.34535 4328.4,933.67864 C4318.79995,925.01193 4311.33336,914.34537 4306,901.67864 C4300.66664,889.01191 4298,874.67872 4298,858.67864 Z M4530,858.67864 C4530,842.411892 4532.59997,827.94537 4537.8,815.27864 C4543.00003,802.61191 4549.99996,791.878684 4558.8,783.07864 C4567.60004,774.278596 4577.79994,767.611996 4589.4,763.07864 C4601.00006,758.545284 4613.19994,756.27864 4626,756.27864 C4638.80006,756.27864 4650.99994,758.545284 4662.6,763.07864 C4674.20006,767.611996 4684.39996,774.278596 4693.2,783.07864 C4702.00004,791.878684 4708.99997,802.61191 4714.2,815.27864 C4719.40003,827.94537 4722,842.411892 4722,858.67864 C4722,874.67872 4719.40003,889.01191 4714.2,901.67864 C4708.99997,914.34537 4702.00004,925.01193 4693.2,933.67864 C4684.39996,942.34535 4674.20006,948.945284 4662.6,953.47864 C4650.99994,958.011996 4638.80006,960.27864 4626,960.27864 C4613.19994,960.27864 4601.00006,958.011996 4589.4,953.47864 C4577.79994,948.945284 4567.60004,942.34535 4558.8,933.67864 C4549.99996,925.01193 4543.00003,914.34537 4537.8,901.67864 C4532.59997,889.01191 4530,874.67872 4530,858.67864 Z M4564,858.67864 C4564,869.878696 4565.46665,880.011928 4568.4,889.07864 C4571.33335,898.145352 4575.53331,905.945274 4581,912.47864 C4586.46669,919.012006 4592.99996,924.078622 4600.6,927.67864 C4608.20004,931.278658 4616.66662,933.07864 4626,933.07864 C4635.33338,933.07864 4643.79996,931.278658 4651.4,927.67864 C4659.00004,924.078622 4665.53331,919.012006 4671,912.47864 C4676.46669,905.945274 4680.66665,898.145352 4683.6,889.07864 C4686.53335,880.011928 4688,869.878696 4688,858.67864 C4688,847.478584 4686.53335,837.278686 4683.6,828.07864 C4680.66665,818.878594 4676.46669,810.94534 4671,804.27864 C4665.53331,797.61194 4659.00004,792.478658 4651.4,788.87864 C4643.79996,785.278622 4635.33338,783.47864 4626,783.47864 C4616.66662,783.47864 4608.20004,785.278622 4600.6,788.87864 C4592.99996,792.478658 4586.46669,797.61194 4581,804.27864 C4575.53331,810.94534 4571.33335,818.878594 4568.4,828.07864 C4565.46665,837.278686 4564,847.478584 4564,858.67864 Z" id="by-krypt.co" fill-opacity="0.385954484" fill="#4A4A4A"></path>
            </g>
            <g id="Kryptonite_Icon_WhiteOnGreen" transform="translate(42.000000, 11.000000)">
                <g id="Icon">
                    <g id="Logo-corrections">
                        <g id="Kryptonite_Icon_WhiteOnGreen">
                            <g id="Group">
                                <path d="M521.300051,0 C861.278345,0 1042.6001,226.923077 1042.6001,226.923077 L1042.6001,748.846154 C1042.6001,1043.84615 657.291369,1157.30769 521.300051,1180 L521.300051,0 L521.300051,0 Z M521.300051,0 C181.321756,0 -8.41831737e-14,226.923077 0,226.923077 C0,453.846172 8.41831737e-14,453.846154 0,748.846154 C-8.41831737e-14,1043.84615 385.308733,1157.30769 521.300051,1180 L521.300051,0 L521.300051,0 Z" id="Combined-Shape" fill="#5BC894"></path>
                                <ellipse id="Oval-Copy" fill="#FFFFFF" cx="521.300051" cy="566.307693" rx="294.647855" ry="295"></ellipse>
                                <ellipse id="Oval-Copy-2" fill="#5BC894" cx="521.300051" cy="566.307693" rx="203.986976" ry="204.230769"></ellipse>
                            </g>
                        </g>
                    </g>
                </g>
            </g>
        </g>
    </g>
</svg>