<?xml version="1.0" encoding="UTF-8" standalone="no"?>
<svg width="25px" height="25px" viewBox="0 0 25 25" version="1.1" xmlns="http://www.w3.org/2000/svg" xmlns:xlink="http://www.w3.org/1999/xlink">
    <!-- Generator: Sketch 40.1 (33804) - http://www.bohemiancoding.com/sketch -->
    <title>apple-logo</title>
    <desc>Created with Sketch.</desc>
    <defs></defs>
    <g id="Static-images-for-website" stroke="none" stroke-width="1" fill="none" fill-rule="evenodd">
        <g id="apple-logo" fill="#FFFFFF">
            <g id="Apple_logo_black" transform="translate(3.000000, 0.000000)">
                <path d="M18.6017881,17.1446794 C18.2606625,17.9132981 17.8568811,18.6208076 17.3890517,19.2712818 C16.7513557,20.1580451 16.2292247,20.7718537 15.8268357,21.1127076 C15.2030632,21.6721968 14.5347355,21.9587314 13.8190679,21.9750272 C13.3052909,21.9750272 12.6856954,21.8324389 11.9644584,21.5431884 C11.2408545,21.2552959 10.5758684,21.1127076 9.9678294,21.1127076 C9.33013337,21.1127076 8.64621134,21.2552959 7.91467097,21.5431884 C7.18201671,21.8324389 6.59179979,21.9831751 6.14053935,21.9981129 C5.45425033,22.0266306 4.77018907,21.7319481 4.08738092,21.1127076 C3.65157555,20.741978 3.10647076,20.1064417 2.45345889,19.2060985 C1.75282867,18.2446461 1.17681372,17.1297415 0.725553276,15.8586688 C0.242268797,14.4857474 0,13.1562814 0,11.8691845 C0,10.3948216 0.326645171,9.12320575 0.980910157,8.05759598 C1.49510479,7.20165888 2.17916606,6.52646941 3.03532171,6.03080538 C3.89147736,5.53514135 4.8165543,5.28255639 5.8127803,5.26639639 C6.35788509,5.26639639 7.07271728,5.43084821 7.9610362,5.75404831 C8.84684889,6.07833481 9.41562363,6.24278663 9.6649934,6.24278663 C9.85142899,6.24278663 10.4832772,6.05049615 11.5544115,5.66713736 C12.5673457,5.31161724 13.4222483,5.16441181 14.1226,5.22239772 C16.0203723,5.37177592 17.4461381,6.10142053 18.394328,7.4159487 C16.6970541,8.41895543 15.8574674,9.82378951 15.8741756,11.6259696 C15.8894914,13.0297173 16.4116225,14.1978548 17.437784,15.1253577 C17.9028287,15.5558385 18.422175,15.8885445 19,16.1248336 C18.8746886,16.4792674 18.7424154,16.8187633 18.6017881,17.1446794 L18.6017881,17.1446794 Z M14.2493038,0.4401225 C14.2493038,1.54037443 13.8371684,2.56767548 13.0156823,3.51853563 C12.0243295,4.64892122 10.8252382,5.30211136 9.52492305,5.1990404 C9.5083541,5.06704439 9.49874689,4.92812266 9.49874689,4.78213942 C9.49874689,3.72589974 9.97019639,2.59551415 10.8074161,1.67127048 C11.2253994,1.20330931 11.7569984,0.814206256 12.4016562,0.503811934 C13.0449216,0.198048335 13.6533783,0.0289522114 14.2256339,0 C14.2423421,0.147083209 14.2493038,0.294179998 14.2493038,0.440108921 L14.2493038,0.4401225 Z" id="Shape"></path>
            </g>
        </g>
    </g>
</svg>