<?xml version="1.0" encoding="UTF-8"?>
<svg width="44px" height="49px" viewBox="0 0 44 49" version="1.1" xmlns="http://www.w3.org/2000/svg" xmlns:xlink="http://www.w3.org/1999/xlink">
    <!-- Generator: Sketch 48.2 (47327) - http://www.bohemiancoding.com/sketch -->
    <title>manageKeys</title>
    <desc>Created with Sketch.</desc>
    <defs></defs>
    <g id="Page-1" stroke="none" stroke-width="1" fill="none" fill-rule="evenodd">
        <g id="manageKeys" transform="translate(-6.000000, 5.000000)">
            <circle id="glow" stroke="#DFF4EA" stroke-width="5" cx="27.5" cy="9.5" r="12"></circle>
            <circle id="Oval-5" stroke="#5BC894" stroke-width="3" cx="27.5" cy="9.5" r="9.5"></circle>
            <g id="key-group-copy-2" transform="translate(39.816150, 23.463884) rotate(-24.000000) translate(-39.816150, -23.463884) translate(31.816150, 7.463884)">
                <g id="shadow" opacity="0.2" transform="translate(1.913545, 2.406737)" fill="#5BC894">
                    <path d="M6.56278626,12.9183266 C2.93825949,12.9183266 0,10.0264607 0,6.45916332 C0,2.89186592 2.93825949,0 6.56278626,0 C10.187313,0 13.1255725,2.89186592 13.1255725,6.45916332 C13.1255725,10.0264607 10.187313,12.9183266 6.56278626,12.9183266 Z M6.56278626,9.87872038 C8.48165338,9.87872038 10.0372025,8.34773254 10.0372025,6.45916332 C10.0372025,4.57059411 8.48165338,3.03960627 6.56278626,3.03960627 C4.64391915,3.03960627 3.08837001,4.57059411 3.08837001,6.45916332 C3.08837001,8.34773254 4.64391915,9.87872038 6.56278626,9.87872038 Z" id="Combined-Shape"></path>
                    <rect id="Rectangle" x="4.63255501" y="11.3985235" width="3.86046251" height="17.4777361" rx="1.93023125"></rect>
                    <path d="M8.49301752,22.1407684 L9.53389817,22.1407684 C10.6384677,22.1407684 11.5338982,23.0361989 11.5338982,24.1407684 L11.5338982,24.7001778 C11.5338982,25.8047473 10.6384677,26.7001778 9.53389817,26.7001778 L8.49301752,26.7001778 L8.49301752,22.1407684 Z" id="Rectangle-Copy"></path>
                    <path d="M8.49301752,18.3412606 L10.3940458,18.3412606 C11.0235689,18.3412606 11.5338982,18.8515898 11.5338982,19.4811129 L11.5338982,19.4811129 C11.5338982,20.110636 11.0235689,20.6209653 10.3940458,20.6209653 L8.49301752,20.6209653 L8.49301752,18.3412606 Z" id="Rectangle-Copy-2"></path>
                </g>
                <g id="key" transform="translate(-0.000000, 0.656279)" fill="#5BC894">
                    <path d="M6.56278626,12.9183266 C2.93825949,12.9183266 0,10.0264607 0,6.45916332 C0,2.89186592 2.93825949,0 6.56278626,0 C10.187313,0 13.1255725,2.89186592 13.1255725,6.45916332 C13.1255725,10.0264607 10.187313,12.9183266 6.56278626,12.9183266 Z M6.56278626,9.87872038 C8.48165338,9.87872038 10.0372025,8.34773254 10.0372025,6.45916332 C10.0372025,4.57059411 8.48165338,3.03960627 6.56278626,3.03960627 C4.64391915,3.03960627 3.08837001,4.57059411 3.08837001,6.45916332 C3.08837001,8.34773254 4.64391915,9.87872038 6.56278626,9.87872038 Z" id="Combined-Shape"></path>
                    <rect id="Rectangle" x="4.63255501" y="11.3985235" width="3.86046251" height="17.4777361" rx="1.93023125"></rect>
                    <path d="M8.49301752,22.1407684 L9.53389817,22.1407684 C10.6384677,22.1407684 11.5338982,23.0361989 11.5338982,24.1407684 L11.5338982,24.7001778 C11.5338982,25.8047473 10.6384677,26.7001778 9.53389817,26.7001778 L8.49301752,26.7001778 L8.49301752,22.1407684 Z" id="Rectangle-Copy"></path>
                    <path d="M8.49301752,18.3412606 L10.3940458,18.3412606 C11.0235689,18.3412606 11.5338982,18.8515898 11.5338982,19.4811129 L11.5338982,19.4811129 C11.5338982,20.110636 11.0235689,20.6209653 10.3940458,20.6209653 L8.49301752,20.6209653 L8.49301752,18.3412606 Z" id="Rectangle-Copy-2"></path>
                </g>
                <path d="M7.74090097,3.89844365 C9.06595012,4.37142783 10.0142612,5.63747503 10.0142612,7.12501216 C10.0142612,8.94343576 8.59714546,10.4308742 6.80704134,10.5432001 L6.8768025,10.0468237 C8.36320291,9.90232963 9.52497554,8.64934417 9.52497554,7.12501216 C9.52497554,5.88571608 8.75706229,4.82577574 7.67110591,4.39506127 L7.74090097,3.89844365 Z" id="Combined-Shape" fill="#FFFFFF"></path>
            </g>
            <g id="key-group-copy" transform="translate(28.205966, 28.327911) rotate(11.000000) translate(-28.205966, -28.327911) translate(19.705966, 12.327911)">
                <g id="shadow" opacity="0.2" transform="translate(2.172436, 2.790818)" fill="#5BC894">
                    <path d="M6.56278626,12.9183266 C2.93825949,12.9183266 0,10.0264607 0,6.45916332 C0,2.89186592 2.93825949,0 6.56278626,0 C10.187313,0 13.1255725,2.89186592 13.1255725,6.45916332 C13.1255725,10.0264607 10.187313,12.9183266 6.56278626,12.9183266 Z M6.56278626,9.87872038 C8.48165338,9.87872038 10.0372025,8.34773254 10.0372025,6.45916332 C10.0372025,4.57059411 8.48165338,3.03960627 6.56278626,3.03960627 C4.64391915,3.03960627 3.08837001,4.57059411 3.08837001,6.45916332 C3.08837001,8.34773254 4.64391915,9.87872038 6.56278626,9.87872038 Z" id="Combined-Shape"></path>
                    <rect id="Rectangle" x="4.63255501" y="11.3985235" width="3.86046251" height="17.4777361" rx="1.93023125"></rect>
                    <path d="M8.49301752,22.1407684 L9.53389817,22.1407684 C10.6384677,22.1407684 11.5338982,23.0361989 11.5338982,24.1407684 L11.5338982,24.7001778 C11.5338982,25.8047473 10.6384677,26.7001778 9.53389817,26.7001778 L8.49301752,26.7001778 L8.49301752,22.1407684 Z" id="Rectangle-Copy"></path>
                    <path d="M8.49301752,18.3412606 L10.3940458,18.3412606 C11.0235689,18.3412606 11.5338982,18.8515898 11.5338982,19.4811129 L11.5338982,19.4811129 C11.5338982,20.110636 11.0235689,20.6209653 10.3940458,20.6209653 L8.49301752,20.6209653 L8.49301752,18.3412606 Z" id="Rectangle-Copy-2"></path>
                </g>
                <g id="key" transform="translate(0.000000, 0.656279)" fill="#5BC894">
                    <path d="M6.56278626,12.9183266 C2.93825949,12.9183266 0,10.0264607 0,6.45916332 C0,2.89186592 2.93825949,0 6.56278626,0 C10.187313,0 13.1255725,2.89186592 13.1255725,6.45916332 C13.1255725,10.0264607 10.187313,12.9183266 6.56278626,12.9183266 Z M6.56278626,9.87872038 C8.48165338,9.87872038 10.0372025,8.34773254 10.0372025,6.45916332 C10.0372025,4.57059411 8.48165338,3.03960627 6.56278626,3.03960627 C4.64391915,3.03960627 3.08837001,4.57059411 3.08837001,6.45916332 C3.08837001,8.34773254 4.64391915,9.87872038 6.56278626,9.87872038 Z" id="Combined-Shape"></path>
                    <rect id="Rectangle" x="4.63255501" y="11.3985235" width="3.86046251" height="17.4777361" rx="1.93023125"></rect>
                    <path d="M8.49301752,22.1407684 L9.53389817,22.1407684 C10.6384677,22.1407684 11.5338982,23.0361989 11.5338982,24.1407684 L11.5338982,24.7001778 C11.5338982,25.8047473 10.6384677,26.7001778 9.53389817,26.7001778 L8.49301752,26.7001778 L8.49301752,22.1407684 Z" id="Rectangle-Copy"></path>
                    <path d="M8.49301752,18.3412606 L10.3940458,18.3412606 C11.0235689,18.3412606 11.5338982,18.8515898 11.5338982,19.4811129 L11.5338982,19.4811129 C11.5338982,20.110636 11.0235689,20.6209653 10.3940458,20.6209653 L8.49301752,20.6209653 L8.49301752,18.3412606 Z" id="Rectangle-Copy-2"></path>
                </g>
                <path d="M6.20427978,3.72140783 C6.33065619,3.70727169 6.45911097,3.70001221 6.58926129,3.70001221 C8.48083654,3.70001221 10.0142612,5.23343692 10.0142612,7.12501216 C10.0142612,8.65665398 9.00888263,9.95347703 7.62206129,10.3915454 L7.51974885,9.91020327 C8.68502007,9.52108148 9.52497554,8.42113788 9.52497554,7.12501216 C9.52497554,5.50366195 8.2106115,4.18929791 6.58926129,4.18929791 C6.49390683,4.18929791 6.39961419,4.19384407 6.30658827,4.20273145 L6.20427978,3.72140783 Z" id="Combined-Shape" fill="#FFFFFF"></path>
            </g>
            <g id="key-group" transform="translate(16.933014, 24.841295) rotate(38.000000) translate(-16.933014, -24.841295) translate(8.433014, 8.841295)">
                <g id="shadow" opacity="0.2" transform="translate(2.403672, 2.172349)" fill="#5BC894">
                    <path d="M6.56278626,12.9183266 C2.93825949,12.9183266 0,10.0264607 0,6.45916332 C0,2.89186592 2.93825949,0 6.56278626,0 C10.187313,0 13.1255725,2.89186592 13.1255725,6.45916332 C13.1255725,10.0264607 10.187313,12.9183266 6.56278626,12.9183266 Z M6.56278626,9.87872038 C8.48165338,9.87872038 10.0372025,8.34773254 10.0372025,6.45916332 C10.0372025,4.57059411 8.48165338,3.03960627 6.56278626,3.03960627 C4.64391915,3.03960627 3.08837001,4.57059411 3.08837001,6.45916332 C3.08837001,8.34773254 4.64391915,9.87872038 6.56278626,9.87872038 Z" id="Combined-Shape"></path>
                    <rect id="Rectangle" x="4.63255501" y="11.3985235" width="3.86046251" height="17.4777361" rx="1.93023125"></rect>
                    <path d="M8.49301752,22.1407684 L9.53389817,22.1407684 C10.6384677,22.1407684 11.5338982,23.0361989 11.5338982,24.1407684 L11.5338982,24.7001778 C11.5338982,25.8047473 10.6384677,26.7001778 9.53389817,26.7001778 L8.49301752,26.7001778 L8.49301752,22.1407684 Z" id="Rectangle-Copy"></path>
                    <path d="M8.49301752,18.3412606 L10.3940458,18.3412606 C11.0235689,18.3412606 11.5338982,18.8515898 11.5338982,19.4811129 L11.5338982,19.4811129 C11.5338982,20.110636 11.0235689,20.6209653 10.3940458,20.6209653 L8.49301752,20.6209653 L8.49301752,18.3412606 Z" id="Rectangle-Copy-2"></path>
                </g>
                <g id="key" transform="translate(0.000000, 0.656279)" fill="#5BC894">
                    <path d="M6.56278626,12.9183266 C2.93825949,12.9183266 0,10.0264607 0,6.45916332 C0,2.89186592 2.93825949,0 6.56278626,0 C10.187313,0 13.1255725,2.89186592 13.1255725,6.45916332 C13.1255725,10.0264607 10.187313,12.9183266 6.56278626,12.9183266 Z M6.56278626,9.87872038 C8.48165338,9.87872038 10.0372025,8.34773254 10.0372025,6.45916332 C10.0372025,4.57059411 8.48165338,3.03960627 6.56278626,3.03960627 C4.64391915,3.03960627 3.08837001,4.57059411 3.08837001,6.45916332 C3.08837001,8.34773254 4.64391915,9.87872038 6.56278626,9.87872038 Z" id="Combined-Shape"></path>
                    <rect id="Rectangle" x="4.63255501" y="11.3985235" width="3.86046251" height="17.4777361" rx="1.93023125"></rect>
                    <path d="M8.49301752,22.1407684 L9.53389817,22.1407684 C10.6384677,22.1407684 11.5338982,23.0361989 11.5338982,24.1407684 L11.5338982,24.7001778 C11.5338982,25.8047473 10.6384677,26.7001778 9.53389817,26.7001778 L8.49301752,26.7001778 L8.49301752,22.1407684 Z" id="Rectangle-Copy"></path>
                    <path d="M8.49301752,18.3412606 L10.3940458,18.3412606 C11.0235689,18.3412606 11.5338982,18.8515898 11.5338982,19.4811129 L11.5338982,19.4811129 C11.5338982,20.110636 11.0235689,20.6209653 10.3940458,20.6209653 L8.49301752,20.6209653 L8.49301752,18.3412606 Z" id="Rectangle-Copy-2"></path>
                </g>
                <path d="M7.18853093,3.75226201 C8.79437915,4.03564934 10.0142612,5.43787138 10.0142612,7.12501216 C10.0142612,8.305395 9.41714211,9.34631319 8.50848989,9.96218069 L8.39711466,9.43820144 C9.08369932,8.90084913 9.52497554,8.06446343 9.52497554,7.12501216 C9.52497554,5.74868781 8.57785862,4.59357446 7.29982848,4.27587582 L7.18853093,3.75226201 Z" id="Combined-Shape" fill="#FFFFFF"></path>
            </g>
            <g id="ring-outline" transform="translate(16.000000, 10.000000)" fill="#FFFFFF">
                <path d="M7.89999962,6.64616668 C5.50362461,5.43657519 3.79858371,3.05705927 3.53546058,0.25820258 C3.63165635,0.242809435 3.72518284,0.228437872 3.81604004,0.215087891 C3.88744447,0.204596176 3.95904261,0.194464723 4.03083445,0.184693532 C4.26131166,2.73137794 5.76484352,4.91066285 7.89999962,6.08111784 L7.89999962,6.64616668 Z" id="Combined-Shape"></path>
                <path d="M11.4000244,7.49938812 L11.4000244,6.99934728 C11.4332978,6.99978198 11.4666234,7 11.5,7 C12.4140883,7 13.2899827,6.8364725 14.1000245,6.53707618 L14.1000245,7.06800671 C13.2848495,7.34800273 12.4101752,7.5 11.5,7.5 C11.4666267,7.5 11.4333011,7.49979565 11.4000244,7.49938812 Z" id="Combined-Shape"></path>
                <path d="M18.8902685,2.56877487 C18.4776309,3.56136732 17.8708474,4.45294827 17.1173171,5.19611869 L16.7823832,4.82413688 C17.4363679,4.17524907 17.9714506,3.40669932 18.3520592,2.5540598 C18.5000974,2.52576847 18.6284788,2.51463897 18.7372035,2.5206713 C18.7858546,2.52337059 18.8368763,2.53940512 18.8902685,2.56877487 Z" id="Combined-Shape"></path>
                <path d="M6.32384532,9.77203197 C3.28264107,8.23652663 1.0162025,5.39016094 0.267103701,1.97550898 L0.696621492,1.58126887 C1.36339499,5.06308371 3.67163795,7.96181462 6.78497362,9.44108486 C6.65847476,9.60459083 6.50476533,9.71490654 6.32384532,9.77203197 Z" id="Combined-Shape"></path>
                <path d="M9.89948693,10.8895162 C10.057761,10.7319649 10.179083,10.5792167 10.2634529,10.4312718 C10.6693688,10.4766807 11.0819611,10.5 11.5,10.5 C12.8355041,10.5 14.1154207,10.2620019 15.2996503,9.82610521 C15.2933771,9.84979981 15.286981,9.8733912 15.280462,9.89687936 C15.2289066,10.0826369 15.1760086,10.256371 15.1217679,10.4180817 C13.9830519,10.7956245 12.7653932,11 11.5,11 C10.9568794,11 10.4225525,10.9623495 9.89948693,10.8895162 Z" id="Combined-Shape"></path>
                <path d="M21.8461792,4.5266014 C21.065245,6.13099967 19.9221105,7.52660476 18.5231489,8.60704357 C18.4993138,8.34932657 18.4713498,8.15880517 18.4392567,8.03547937 C19.781405,6.94299856 20.8609553,5.5402864 21.568619,3.93663165 C21.6888515,4.09176527 21.7813715,4.28842185 21.8461792,4.5266014 Z" id="Combined-Shape"></path>
            </g>
        </g>
    </g>
</svg>