<?xml version="1.0" encoding="UTF-8"?>
<svg width="73px" height="60px" viewBox="0 0 73 60" version="1.1" xmlns="http://www.w3.org/2000/svg" xmlns:xlink="http://www.w3.org/1999/xlink">
    <!-- Generator: Sketch 48.2 (47327) - http://www.bohemiancoding.com/sketch -->
    <title>Group 8</title>
    <desc>Created with Sketch.</desc>
    <defs></defs>
    <g id="Page-1" stroke="none" stroke-width="1" fill="none" fill-rule="evenodd">
        <g id="Group-8" transform="translate(0.000000, 1.000000)">
            <g id="Group-13" transform="translate(52.302632, 5.906250)" fill-rule="nonzero">
                <ellipse id="Oval-4-Copy-3" fill="#5BC894" opacity="0.100000001" cx="9.86842105" cy="9.84375" rx="9.86842105" ry="9.84375"></ellipse>
                <ellipse id="Oval-4" fill="#5AC894" cx="9.86842105" cy="9.84375" rx="2.96052632" ry="2.953125"></ellipse>
            </g>
            <g id="Group-13-Copy" transform="translate(0.000000, 0.984375)" fill-rule="nonzero">
                <ellipse id="Oval-4-Copy-3" fill="#5BC894" opacity="0.100000001" cx="9.86842105" cy="9.84375" rx="9.86842105" ry="9.84375"></ellipse>
                <ellipse id="Oval-4" fill="#5AC894" cx="9.86842105" cy="9.84375" rx="2.96052632" ry="2.953125"></ellipse>
            </g>
            <g id="Page-1-Copy" transform="translate(2.000000, 0.000000)">
                <g id="path-1-link" style="mix-blend-mode: lighten;" fill="#FFFFFF">
                    <path d="M52.7029971,16.3846375 C50.7805556,7.0763 42.7952485,0 33.0328947,0 C25.2633041,0 18.6378655,4.4737 15.2852339,10.970575 C7.23435673,11.7684875 0.96052632,18.697525 0.96052632,27.0703125 C0.96052632,36.022525 8.1580409,43.3125 16.9967105,43.3125 L51.7793129,43.3125 C59.1174708,43.3125 65.1052632,37.2477875 65.1052632,29.739325 C65.1052632,22.5966125 59.6192251,16.745575 52.7029971,16.3846375 L52.7029971,16.3846375 Z" id="path-1"></path>
                </g>
                <g id="path-1-link" stroke="#5AC894" stroke-width="2">
                    <path d="M52.7029971,16.3846375 C50.7805556,7.0763 42.7952485,0 33.0328947,0 C25.2633041,0 18.6378655,4.4737 15.2852339,10.970575 C7.23435673,11.7684875 0.96052632,18.697525 0.96052632,27.0703125 C0.96052632,36.022525 8.1580409,43.3125 16.9967105,43.3125 L51.7793129,43.3125 C59.1174708,43.3125 65.1052632,37.2477875 65.1052632,29.739325 C65.1052632,22.5966125 59.6192251,16.745575 52.7029971,16.3846375 L52.7029971,16.3846375 Z" id="path-1"></path>
                </g>
            </g>
            <g id="key-group" transform="translate(42.041631, 40.041631) rotate(45.000000) translate(-42.041631, -40.041631) translate(30.541631, 17.541631)" fill="#5BC894">
                <g id="shadow" opacity="0.2" transform="translate(3.000000, 0.000000)">
                    <path d="M10,19.6842105 C4.4771525,19.6842105 0,15.2777499 0,9.84210526 C0,4.40646062 4.4771525,0 10,0 C15.5228475,0 20,4.40646062 20,9.84210526 C20,15.2777499 15.5228475,19.6842105 10,19.6842105 Z M10,15.0526316 C12.9238604,15.0526316 15.2941176,12.7197995 15.2941176,9.84210526 C15.2941176,6.96441104 12.9238604,4.63157895 10,4.63157895 C7.07613956,4.63157895 4.70588235,6.96441104 4.70588235,9.84210526 C4.70588235,12.7197995 7.07613956,15.0526316 10,15.0526316 Z" id="Combined-Shape"></path>
                    <rect id="Rectangle" x="7.05882353" y="17.3684211" width="5.88235294" height="26.6315789" rx="2"></rect>
                    <path d="M12.9411765,33.7368421 L15.5746972,33.7368421 C16.6792667,33.7368421 17.5746972,34.6322726 17.5746972,35.7368421 L17.5746972,38.6842105 C17.5746972,39.78878 16.6792667,40.6842105 15.5746972,40.6842105 L12.9411765,40.6842105 L12.9411765,33.7368421 Z" id="Rectangle-Copy"></path>
                    <path d="M12.9411765,27.9473684 L15.8378551,27.9473684 C16.7970865,27.9473684 17.5746972,28.7249791 17.5746972,29.6842105 L17.5746972,29.6842105 C17.5746972,30.6434419 16.7970865,31.4210526 15.8378551,31.4210526 L12.9411765,31.4210526 L12.9411765,27.9473684 Z" id="Rectangle-Copy-2"></path>
                </g>
                <g id="key" transform="translate(0.000000, 1.000000)">
                    <path d="M10,19.6842105 C4.4771525,19.6842105 0,15.2777499 0,9.84210526 C0,4.40646062 4.4771525,0 10,0 C15.5228475,0 20,4.40646062 20,9.84210526 C20,15.2777499 15.5228475,19.6842105 10,19.6842105 Z M10,15.0526316 C12.9238604,15.0526316 15.2941176,12.7197995 15.2941176,9.84210526 C15.2941176,6.96441104 12.9238604,4.63157895 10,4.63157895 C7.07613956,4.63157895 4.70588235,6.96441104 4.70588235,9.84210526 C4.70588235,12.7197995 7.07613956,15.0526316 10,15.0526316 Z" id="Combined-Shape"></path>
                    <rect id="Rectangle" x="7.05882353" y="17.3684211" width="5.88235294" height="26.6315789" rx="2"></rect>
                    <path d="M12.9411765,33.7368421 L15.5746972,33.7368421 C16.6792667,33.7368421 17.5746972,34.6322726 17.5746972,35.7368421 L17.5746972,38.6842105 C17.5746972,39.78878 16.6792667,40.6842105 15.5746972,40.6842105 L12.9411765,40.6842105 L12.9411765,33.7368421 Z" id="Rectangle-Copy"></path>
                    <path d="M12.9411765,27.9473684 L15.8378551,27.9473684 C16.7970865,27.9473684 17.5746972,28.7249791 17.5746972,29.6842105 L17.5746972,29.6842105 C17.5746972,30.6434419 16.7970865,31.4210526 15.8378551,31.4210526 L12.9411765,31.4210526 L12.9411765,27.9473684 Z" id="Rectangle-Copy-2"></path>
                </g>
            </g>
            <g id="arrow-in" transform="translate(14.000000, 12.000000)">
                <g id="Group-13-Copy-2" transform="translate(0.000000, 8.000000)" fill="#5BC894" fill-rule="nonzero">
                    <ellipse id="Oval-4-Copy-3" opacity="0.100000001" cx="9.86842105" cy="9.84375" rx="9.86842105" ry="9.84375"></ellipse>
                    <ellipse id="Oval-4" cx="9.86842105" cy="9.84375" rx="2.96052632" ry="2.953125"></ellipse>
                </g>
                <g id="Group-12" stroke-linecap="round" transform="translate(6.000000, 0.000000)" stroke="#5BC894" stroke-width="2">
                    <path d="M4,18 L4,1" id="Path-2"></path>
                    <path d="M8,4 L4,0" id="Path-2-Copy"></path>
                    <path d="M4,4 L0,0" id="Path-2-Copy-2" transform="translate(2.000000, 2.000000) scale(-1, 1) translate(-2.000000, -2.000000) "></path>
                </g>
            </g>
        </g>
    </g>
</svg>