<?xml version="1.0" encoding="UTF-8"?>
<svg width="131px" height="35px" viewBox="0 0 131 35" version="1.1" xmlns="http://www.w3.org/2000/svg" xmlns:xlink="http://www.w3.org/1999/xlink">
    <!-- Generator: Sketch 48.2 (47327) - http://www.bohemiancoding.com/sketch -->
    <title>sigChain</title>
    <desc>Created with Sketch.</desc>
    <defs></defs>
    <g id="Page-1" stroke="none" stroke-width="1" fill="none" fill-rule="evenodd" stroke-linejoin="round">
        <g id="sigChain" transform="translate(1.000000, 1.000000)" stroke="#5BC894" stroke-width="2">
            <g id="block-4">
                <polygon id="Right" fill="#5BC894" transform="translate(13.897059, 24.444444) scale(-1, 1) rotate(90.000000) translate(-13.897059, -24.444444) " points="5.86764706 10.6944444 21.9264706 19.8611111 21.9264706 38.1944444 5.86764706 29.0277778"></polygon>
                <polygon id="Left" fill="#FFFFFF" transform="translate(13.897059, 8.555556) rotate(90.000000) translate(-13.897059, -8.555556) " points="5.86764706 -5.19444444 21.9264706 3.97222222 21.9264706 22.3055556 5.86764706 13.1388889"></polygon>
                <polygon id="Top" fill-opacity="0.2" fill="#5BC894" transform="translate(27.761178, 16.491183) scale(-1, 1) rotate(210.000000) translate(-27.761178, -16.491183) " points="19.7317666 2.71062755 35.7905901 11.8976643 35.7905901 30.2717377 19.7317666 21.084701"></polygon>
            </g>
            <g id="block-3" transform="translate(31.000000, 0.000000)">
                <polygon id="Right" fill="#5BC894" transform="translate(13.897059, 24.444444) scale(-1, 1) rotate(90.000000) translate(-13.897059, -24.444444) " points="5.86764706 10.6944444 21.9264706 19.8611111 21.9264706 38.1944444 5.86764706 29.0277778"></polygon>
                <polygon id="Left" fill="#FFFFFF" transform="translate(13.897059, 8.555556) rotate(90.000000) translate(-13.897059, -8.555556) " points="5.86764706 -5.19444444 21.9264706 3.97222222 21.9264706 22.3055556 5.86764706 13.1388889"></polygon>
                <polygon id="Top" fill-opacity="0.2" fill="#5BC894" transform="translate(27.761178, 16.491183) scale(-1, 1) rotate(210.000000) translate(-27.761178, -16.491183) " points="19.7317666 2.71062755 35.7905901 11.8976643 35.7905901 30.2717377 19.7317666 21.084701"></polygon>
            </g>
            <g id="block-2" transform="translate(61.000000, 0.000000)">
                <polygon id="Right" fill="#5BC894" transform="translate(13.897059, 24.444444) scale(-1, 1) rotate(90.000000) translate(-13.897059, -24.444444) " points="5.86764706 10.6944444 21.9264706 19.8611111 21.9264706 38.1944444 5.86764706 29.0277778"></polygon>
                <polygon id="Left" fill="#FFFFFF" transform="translate(13.897059, 8.555556) rotate(90.000000) translate(-13.897059, -8.555556) " points="5.86764706 -5.19444444 21.9264706 3.97222222 21.9264706 22.3055556 5.86764706 13.1388889"></polygon>
                <polygon id="Top" fill-opacity="0.2" fill="#5BC894" transform="translate(27.761178, 16.491183) scale(-1, 1) rotate(210.000000) translate(-27.761178, -16.491183) " points="19.7317666 2.71062755 35.7905901 11.8976643 35.7905901 30.2717377 19.7317666 21.084701"></polygon>
            </g>
            <g id="block-1" transform="translate(92.000000, 0.000000)">
                <polygon id="Right" fill="#5BC894" transform="translate(13.897059, 24.444444) scale(-1, 1) rotate(90.000000) translate(-13.897059, -24.444444) " points="5.86764706 10.6944444 21.9264706 19.8611111 21.9264706 38.1944444 5.86764706 29.0277778"></polygon>
                <polygon id="Left" fill="#FFFFFF" transform="translate(13.897059, 8.555556) rotate(90.000000) translate(-13.897059, -8.555556) " points="5.86764706 -5.19444444 21.9264706 3.97222222 21.9264706 8.11810981 21.9264706 22.3055556 5.86764706 13.1388889"></polygon>
                <polygon id="Top" fill-opacity="0.2" fill="#5BC894" transform="translate(27.761178, 16.491183) scale(-1, 1) rotate(210.000000) translate(-27.761178, -16.491183) " points="19.7317666 2.71062755 35.7905901 11.8976643 35.7905901 30.2717377 19.7317666 21.084701"></polygon>
            </g>
        </g>
    </g>
</svg>