<?xml version="1.0" encoding="UTF-8"?>
<svg width="59px" height="46px" viewBox="0 0 59 46" version="1.1" xmlns="http://www.w3.org/2000/svg" xmlns:xlink="http://www.w3.org/1999/xlink">
    <!-- Generator: Sketch 48.2 (47327) - http://www.bohemiancoding.com/sketch -->
    <title>teamManagement</title>
    <desc>Created with Sketch.</desc>
    <defs>
        <path d="M17.0644322,20.7803082 C17.4299552,21.1050552 17.8972278,21.6648332 18.6505125,22.6194805 C20.4481351,24.2725039 21.5914047,24.3751731 20.6787692,24.9516626 C19.7661337,25.5281521 16.616282,25.4147099 13.7343608,27.1346273 C8.89015069,30.0256297 7.85019671,34.1164356 5.73346419,33.9974628 C1.12210517,33.7382774 0,33.3867259 0,31.352562 C0,26.1105672 5.00684126,21.727054 11.7013269,20.6386945 C12.049941,20.2982521 12.3622928,19.9574119 12.3622928,19.6541401 C12.3622928,18.9967559 11.8711455,18.2874183 11.3626486,17.6607699 C9.04524679,16.0633947 7.47389558,12.9655187 7.47389558,9.40576859 C7.47389558,4.21110604 10.8200726,0 14.9477912,0 C17.101978,0 18.3665453,0.029458671 19.7304673,1.86458192 C19.3468041,2.36983752 18.0388875,3.87664022 17.4809405,4.60749119 C16.2501945,6.21963718 15.4129978,8.49841188 15.2448497,10.5039387 C14.9862502,13.5882921 15.2255612,15.8588573 15.5853605,17.2383253 C15.8359626,17.6317663 16.0197438,18.1829213 16.2130729,18.7352968 C16.2268243,18.7663439 16.2364709,18.7940418 16.2423409,18.818675 C16.382697,19.2171198 16.5300276,19.6120988 16.7130379,19.9447895 C16.8750717,20.2393475 16.9937136,20.5195334 17.0644322,20.7803082 Z" id="path-1"></path>
        <path d="M50.8770242,21.3914937 C51.2599531,21.7257921 51.7494767,22.3020341 52.5386322,23.2847594 C54.4218559,24.9864011 55.6195668,25.09209 54.6634725,25.6855351 C53.7073781,26.2789801 50.4075335,26.1622014 47.388378,27.9327046 C42.3134912,30.9087365 41.2240156,35.1198602 39.0064863,34.9973882 C34.1755387,34.7305796 33,34.3686884 33,32.2746962 C33,26.878525 38.2452623,22.366085 45.2585329,21.2457149 C45.6237477,20.8952595 45.9509734,20.5443946 45.9509734,20.232203 C45.9509734,19.555484 45.4364382,18.8252835 44.9037271,18.1802043 C42.4759728,16.5358475 40.8297954,13.3468575 40.8297954,9.68240885 C40.8297954,4.3349621 44.3353142,0 48.6595907,0 C50.9163579,0 52.2411427,0.0303251025 53.6700134,1.91942256 C53.2680805,2.43953862 51.8978821,3.99065905 51.3133663,4.74300564 C50.0240133,6.40256769 49.14695,8.74836517 48.9707949,10.8128781 C48.6998812,13.9879478 48.950588,16.3252943 49.3275205,17.7453348 C49.5900561,18.1503477 49.7825887,18.7177131 49.985124,19.2863349 C49.9995302,19.3182952 50.0096362,19.3468078 50.0157857,19.3721654 C50.1628255,19.7823293 50.3171718,20.1889253 50.5088969,20.531401 C50.6786466,20.8346224 50.8029381,21.1230491 50.8770242,21.3914937 Z" id="path-2"></path>
        <path d="M32.2695863,26.9901793 C39.6396426,28.3598806 45,32.6012938 45,38.3284283 C45,41.7673515 35.8111691,41.9170617 27,41.9877898 C17.8187831,42.0614882 9,41.911778 9,38.3284283 C9,32.5959353 14.3703929,28.3519449 21.7511063,26.9863422 C22.2610235,26.2940818 23.8865654,25.4454466 23.8865654,24.7733867 C23.8865654,23.3869498 22.3442953,22.5220084 22.0582432,22.0086225 C19.6136258,20.0601287 18,16.7075211 18,12.8985285 C18,6.87943741 22.0294373,2 27,2 C31.9705627,2 36,6.87943741 36,12.8985285 C36,16.7075211 34.3863742,20.0601287 31.9417568,22.0086225 C31.6557047,22.5220084 30.1134346,23.3869498 30.1134346,24.7733867 C30.1134346,25.4273617 31.7846714,26.2873979 32.2695863,26.9901793 Z" id="path-3"></path>
        <path d="M13.8913089,17.1514516 C14.188863,17.4038605 14.5692465,17.8389468 15.1824582,18.5809445 C16.6458138,19.8657535 17.5764928,19.945553 16.8335615,20.3936282 C16.0906302,20.8417035 13.5264919,20.7535308 11.1804627,22.090333 C7.23703124,24.3373587 6.39045623,27.5169291 4.66732915,27.4244577 C0.913450225,27.2230064 0,26.9497637 0,25.368714 C0,21.2943844 4.07582142,17.8873078 9.52547049,17.0413827 C9.80925996,16.7767745 10.0635301,16.5118571 10.0635301,16.2761398 C10.0635301,15.7651892 9.66371144,15.2138581 9.24976928,14.7267969 C7.36328729,13.4852404 6.08412812,11.0774226 6.08412812,8.3106142 C6.08412812,4.27307347 8.80808506,1 12.1682562,1 C13.921873,1 14.9512946,1.02289669 16.061596,2.44924244 C15.7492748,2.84195131 14.6845646,4.0131106 14.2303676,4.58116301 C13.2284783,5.83420015 12.5469579,7.60537307 12.4100768,9.16416466 C12.1995638,11.561472 12.3943751,13.3262641 12.6872698,14.3984527 C12.8912726,14.7042539 13.0408797,15.132638 13.1982594,15.5619707 C13.2094537,15.586102 13.2173066,15.6076302 13.222085,15.6267763 C13.336342,15.9364667 13.4562765,16.2434633 13.6052562,16.5020464 C13.7371599,16.730991 13.8337403,16.9487649 13.8913089,17.1514516 Z" id="path-4"></path>
        <path d="M40.172118,17.2743125 C40.4821142,17.5372758 40.8784032,17.9905549 41.5172561,18.7635789 C43.0418011,20.1021115 44.0113961,20.1852477 43.2373994,20.652059 C42.4634028,21.1188704 39.7920464,21.0270107 37.3479192,22.4197107 C33.2395952,24.7606946 32.3576211,28.0732171 30.5624423,27.9768791 C26.6515969,27.7670041 25.6999512,27.482336 25.6999512,25.8351755 C25.6999512,21.5904798 29.946201,18.0409381 35.6237243,17.1596411 C35.9193803,16.8839685 36.1842826,16.6079737 36.1842826,16.3623999 C36.1842826,15.8300842 35.7677458,15.2556995 35.3364948,14.7482721 C33.3711305,13.4548005 32.038484,10.9463011 32.038484,8.06379998 C32.038484,3.85743154 34.8763418,0.447496187 38.3770168,0.447496187 C40.2039602,0.447496187 41.2764265,0.471350291 42.4331545,1.95733796 C42.1077738,2.36646775 40.9985433,3.58659846 40.5253543,4.17840369 C39.4815715,5.48383594 38.7715537,7.32906955 38.628949,8.95304121 C38.4096335,11.4505907 38.6125907,13.2891767 38.9177327,14.4061983 C39.1302657,14.7247865 39.2861286,15.1710832 39.450089,15.6183683 C39.4617514,15.6435086 39.4699326,15.665937 39.4749109,15.6858836 C39.5939455,16.0085236 39.718895,16.3283571 39.8741041,16.5977528 C40.0115234,16.8362705 40.1121423,17.0631506 40.172118,17.2743125 Z" id="path-5"></path>
        <path d="M25.6643526,22.1547951 C31.5258384,23.2357135 35.7889889,26.5828827 35.7889889,31.1025291 C35.7889889,33.8164023 28.4810119,33.9345481 21.4733934,33.9903641 C14.1714718,34.0485243 7.15779778,33.9303784 7.15779778,31.1025291 C7.15779778,26.5786539 11.4289296,23.229451 17.2988912,22.1517669 C17.7044338,21.6054602 18.9972449,20.9357481 18.9972449,20.4053829 C18.9972449,19.3112572 17.7706608,18.628677 17.5431605,18.2235315 C15.5989297,16.685851 14.3155956,14.0400949 14.3155956,11.0341764 C14.3155956,6.28412843 17.5202508,2.43345377 21.4733934,2.43345377 C25.4265359,2.43345377 28.6311911,6.28412843 28.6311911,11.0341764 C28.6311911,14.0400949 27.347857,16.685851 25.4036262,18.2235315 C25.1761259,18.628677 23.9495418,19.3112572 23.9495418,20.4053829 C23.9495418,20.9214762 25.2786945,21.6001855 25.6643526,22.1547951 Z" id="path-6"></path>
    </defs>
    <g id="Page-1" stroke="none" stroke-width="1" fill="none" fill-rule="evenodd">
        <g id="teamManagement" transform="translate(2.000000, 2.000000)">
            <g id="shadow">
                <g id="User-Icon-Copy">
                    <use fill="#DEF4EA" fill-rule="evenodd" xlink:href="#path-1"></use>
                    <path stroke="#DEF4EA" stroke-width="2" d="M17.9394777,20.2313133 C18.2849879,20.5744513 18.7005989,21.070088 19.3852959,21.9363958 C19.8658909,22.3743212 20.1998232,22.6257768 20.922012,23.1305241 C21.2307107,23.3462776 21.3709763,23.4506649 21.5141112,23.5831089 C21.8292491,23.8747087 22.0244608,24.1994102 21.9980149,24.6565112 C21.9672893,25.1875851 21.6802214,25.501869 21.2128205,25.7971147 C20.8483878,26.0273179 20.4158799,26.1546548 19.6747854,26.3021476 C19.4668074,26.3435395 18.6610636,26.4928822 18.6574673,26.4935627 C18.2231692,26.5757451 17.8741239,26.6479094 17.5255185,26.7301657 C16.6239641,26.9428948 15.831894,27.2020901 15.0876354,27.5489884 C14.796999,27.6844538 14.5168772,27.83217 14.2468317,27.9933319 C13.3107193,28.5519995 12.4775291,29.1861713 11.7000871,29.9087524 C10.7534519,30.7885877 8.22418113,33.8531727 7.64701271,34.3062471 C7.03068664,34.7900601 6.38994168,35.035939 5.67734689,34.995887 C0.387840399,34.6985857 -1,34.0919843 -1,31.352562 C-1,25.7130179 4.15302603,20.9717869 11.2153341,19.7072507 C11.2727412,19.6454863 11.3169059,19.5936005 11.3507284,19.5484019 C11.2994677,19.2947962 11.077158,18.9105528 10.6711501,18.3969849 C8.08296054,16.542165 6.47389558,13.1382188 6.47389558,9.40576859 C6.47389558,3.7027843 10.2107639,-1 14.9477912,-1 C17.9720929,-1 19.1129432,-0.64267738 20.5330672,1.26806413 L20.9812054,1.871023 L20.5268808,2.46933435 C20.4182634,2.61237531 20.2532847,2.81567312 20.0060081,3.1134137 C19.9112174,3.22754928 19.8085523,3.35052334 19.6642655,3.52291289 C19.483394,3.73891296 19.483394,3.73891296 19.2989606,3.95935537 C19.2837319,3.9775745 19.2837319,3.9775745 19.2685115,3.99578935 C18.7793281,4.58126118 18.4752229,4.95306205 18.2757909,5.21429663 C17.1817447,6.64738047 16.3965894,8.73596438 16.2413533,10.5874879 C16.0247603,13.1708243 16.1536286,15.3515744 16.5182893,16.8483098 C16.7121684,17.1833217 16.8583455,17.5505673 17.0848422,18.1984857 C17.1211765,18.3025872 17.1211765,18.3025872 17.1274007,18.3303219 C17.1549061,18.392422 17.178337,18.4550915 17.19721,18.5195037 C17.3569426,18.9709559 17.4679947,19.2424363 17.58922,19.4628092 C17.7332199,19.7245838 17.8505709,19.9808546 17.9394777,20.2313133 Z"></path>
                </g>
                <g id="User-Icon-Copy" transform="translate(44.000000, 17.500000) scale(-1, 1) translate(-44.000000, -17.500000) ">
                    <use fill="#DEF4EA" fill-rule="evenodd" xlink:href="#path-2"></use>
                    <path stroke="#DEF4EA" stroke-width="2" d="M51.7488495,20.8361187 C52.1106815,21.1884274 52.5465882,21.699028 53.2675279,22.5953895 C53.7739901,23.0490363 54.1249943,23.3088202 54.8842728,23.830267 C55.2058699,24.051129 55.3518557,24.1578852 55.4998154,24.2924142 C55.8244808,24.5876086 56.0253277,24.9158773 55.9979405,25.381022 C55.9661959,25.9201724 55.6723176,26.2363205 55.19084,26.5351724 C54.8166527,26.7674293 54.3685196,26.8970735 53.5991187,27.0475386 C53.3817188,27.0900536 52.538085,27.2437016 52.5339418,27.244472 C52.0781174,27.3292287 51.7115915,27.40369 51.3453452,27.4886069 C50.3971095,27.7084623 49.5635351,27.9764986 48.779917,28.3353945 C48.4737829,28.4756035 48.1787049,28.6285021 47.8942364,28.7953211 C46.910478,29.3722199 46.0350385,30.0269687 45.2183902,30.772798 C44.2236043,31.681317 41.575371,34.8342762 40.9750466,35.2973377 C40.3388103,35.7881 39.6809434,36.0361618 38.9513413,35.9958665 C33.4297086,35.6909121 32,35.0768715 32,32.2746962 C32,26.4754481 37.3922072,21.6051632 44.7793139,20.3120436 C44.8488048,20.2391768 44.9008997,20.1790723 44.9398359,20.1271121 C44.8876636,19.861883 44.6515825,19.4599222 44.2186699,18.9223962 C41.514293,17.0207888 39.8297954,13.5215904 39.8297954,9.68240885 C39.8297954,3.82387756 43.7306815,-1 48.6595907,-1 C51.811949,-1 52.9898673,-0.637479362 54.4675653,1.31617226 L54.9287767,1.92593578 L54.46128,2.53089388 C54.3478665,2.6776552 54.1752492,2.88666881 53.9164997,3.19280905 C53.8172289,3.31026158 53.7096992,3.43682399 53.5585673,3.61425364 C53.3690905,3.8365978 53.3690905,3.8365978 53.1758532,4.0635488 C53.1598969,4.0823066 53.1598969,4.0823066 53.1439492,4.10106023 C52.6311506,4.70412911 52.3123666,5.08710254 52.1030452,5.3565259 C50.9538805,6.83564784 50.1300491,8.9890265 49.9671744,10.8978945 C49.7400409,13.5598666 49.875385,15.8070091 50.2582616,17.3493732 C50.4611968,17.6933881 50.6142085,18.0709009 50.8516256,18.738255 C50.8896847,18.8454031 50.8896847,18.8454031 50.8967877,18.875398 C50.9253304,18.93872 50.9496364,19.0026249 50.9692055,19.0683298 C51.1369838,19.53431 51.2536743,19.814638 51.3814694,20.0429165 C51.5327634,20.3131707 51.6558573,20.5776748 51.7488495,20.8361187 Z"></path>
                </g>
                <g id="User-Icon">
                    <use fill="#DEF4EA" fill-rule="evenodd" xlink:href="#path-3"></use>
                    <path stroke="#DEF4EA" stroke-width="2" d="M32.8130108,26.076533 C40.6854123,27.6484077 46,32.3153198 46,38.3284283 C46,40.6543675 43.6648005,41.8200398 39.4429304,42.4115108 C36.524712,42.8203442 33.3828415,42.9365863 27.0080268,42.9877576 C20.8784134,43.0369605 17.361786,42.9378955 14.4164249,42.5195659 C10.2961027,41.9343566 8,40.7113232 8,38.3284283 C8,32.3067899 13.3296821,27.6354749 21.2192403,26.0701101 C21.4111715,25.8737192 21.6672893,25.6628408 22.1219514,25.3023067 C22.2113247,25.2313944 22.2113247,25.2313944 22.297595,25.1623526 C22.571592,24.9422504 22.7416168,24.7919298 22.8521209,24.6693818 C22.8941332,24.6227904 22.8865654,24.6368848 22.8865654,24.7733867 C22.8865654,24.4367148 22.6839039,24.0832111 22.2371561,23.6294768 C22.1171207,23.5075642 21.6145934,23.0330097 21.7169873,23.1311829 C21.5380218,22.9595944 21.4108545,22.8264506 21.309232,22.6887632 C18.6259426,20.4795099 17,16.8465056 17,12.8985285 C17,6.36490861 21.4303392,1 27,1 C32.5696608,1 37,6.36490861 37,12.8985285 C37,16.8465056 35.3740574,20.4795099 32.690768,22.6887632 C32.5891519,22.8264419 32.4619942,22.9595776 32.2830464,23.1311505 C32.3852959,23.0331142 31.8828661,23.5075776 31.7628439,23.6294768 C31.3796716,24.0186414 31.1760582,24.3340727 31.1258666,24.6283911 C31.1386364,24.6426666 31.1533197,24.6584646 31.1698944,24.6755831 C31.3011488,24.8111442 31.4757162,24.9584665 31.8244887,25.2337792 C31.8500935,25.2539848 31.8500935,25.2539848 31.8759092,25.2743425 C32.3413097,25.6413288 32.611759,25.8646879 32.8130108,26.076533 Z M32.2830464,23.1311505 C32.2830352,23.1311613 32.2830239,23.1311721 32.2830127,23.1311829 C32.2830239,23.1311721 32.2830352,23.1311613 32.2830465,23.1311505 Z"></path>
                </g>
            </g>
            <g id="the-squad" transform="translate(5.000000, 4.000000)">
                <g id="User-Icon-Copy">
                    <use fill="#5BC894" fill-rule="evenodd" xlink:href="#path-4"></use>
                    <path stroke="#DEF4EA" stroke-width="2" d="M14.7544263,16.5853474 C15.0297949,16.8515099 15.3582862,17.226052 15.8768421,17.8515437 C16.1650697,18.0436294 18.1388255,19.4230901 18.0929718,20.1798134 C18.0614675,20.6997302 17.7875522,20.9860569 17.3500191,21.249941 C17.0299748,21.4429655 16.666569,21.5451207 16.044054,21.6634126 C15.8736401,21.6957952 15.2166236,21.8120662 15.2145596,21.8124392 C14.8629772,21.8759615 14.5808294,21.9316576 14.2994904,21.9950407 C13.5749518,22.1582725 12.9398099,22.3567186 12.3447733,22.6215261 C12.1132193,22.7245739 11.89026,22.8368313 11.6755443,22.9591795 C10.9248505,23.3869359 10.2571556,23.8721675 9.63401148,24.4251552 C8.87949703,25.0947228 6.81304064,27.4853445 6.32214813,27.8532715 C5.79013458,28.2520189 5.23274887,28.4562398 4.61374141,28.4230209 C0.205052429,28.1864292 -1,27.6835334 -1,25.368714 C-1,20.8740421 3.23082897,17.1331072 9.01242611,16.1128502 C8.94190436,15.9660935 8.79745464,15.7497909 8.57326026,15.4766847 C6.42112654,13.9913706 5.08412812,11.2803359 5.08412812,8.3106142 C5.08412812,3.75723251 8.21101777,0 12.1682562,0 C14.6768637,0 15.6484853,0.290560948 16.8507011,1.83498428 L17.334016,2.45587354 L16.8442561,3.07169172 C16.7532243,3.18615404 16.6174989,3.34584264 16.4141654,3.57960373 C16.2927318,3.71920918 15.7321077,4.35875315 15.8353967,4.24076284 C15.8256773,4.2518652 15.8247466,4.25292864 15.8133868,4.26590874 C15.4173246,4.71849985 15.1710393,5.00599681 15.0114007,5.20565266 C14.1494835,6.28363032 13.5283383,7.86123327 13.4062435,9.25164032 C13.2340708,11.2123303 13.3334351,12.864804 13.6159783,13.9972694 C13.7744575,14.2649817 13.8956398,14.557934 14.0785134,15.0574135 C14.1081716,15.1385456 14.1081716,15.1385456 14.1054043,15.1411524 C14.1312442,15.1968546 14.1536047,15.2535658 14.1720165,15.3123926 C14.2963402,15.6474807 14.3819547,15.8470014 14.471736,16.0028343 C14.585167,16.1997159 14.6798338,16.3938447 14.7544263,16.5853474 Z"></path>
                </g>
                <g id="User-Icon-Copy" transform="translate(34.604892, 14.213215) scale(-1, 1) translate(-34.604892, -14.213215) ">
                    <use fill="#5BC894" fill-rule="evenodd" xlink:href="#path-5"></use>
                    <path stroke="#DEF4EA" stroke-width="2" d="M41.0356762,16.7082539 C41.3233376,16.9853893 41.6670543,17.3771487 42.2133719,18.0362618 C42.5124868,18.2385949 44.5541364,19.6609862 44.5077334,20.4267745 C44.4760161,20.950206 44.1987196,21.2400672 43.7538571,21.5083718 C43.4261596,21.706012 43.0506986,21.811556 42.4070731,21.9338594 C42.2298395,21.9675378 41.5456541,22.088617 41.5432653,22.0890486 C41.1764427,22.1553244 40.8819489,22.2134577 40.5881774,22.2796417 C39.8308464,22.4502613 39.1665984,22.6578014 38.5439138,22.934913 C38.3014368,23.0428219 38.0679202,23.1603947 37.8430008,23.2885571 C37.0583126,23.7356841 36.3603553,24.2429082 35.7090496,24.8208868 C34.9196615,25.5214019 32.7683603,28.010178 32.2613786,28.3901639 C31.7144248,28.8001092 31.1430008,29.0094736 30.5088546,28.9754422 C25.9369922,28.7300939 24.6999512,28.2138485 24.6999512,25.8351755 C24.6999512,21.1623549 29.1167061,17.2706445 35.1488527,16.2242996 C35.0825426,16.0640136 34.922242,15.8170073 34.6602891,15.4984393 C32.4269857,13.9597872 31.038484,11.146565 31.038484,8.06379998 C31.038484,3.34159058 34.2792745,-0.552503813 38.3770168,-0.552503813 C40.9788725,-0.552503813 41.9796618,-0.253220345 43.2222597,1.3430798 L43.7055746,1.96396906 L43.2158147,2.57978723 C43.1214799,2.69840258 42.9803576,2.86444103 42.7689173,3.10752211 C42.6424666,3.25289532 42.0584852,3.91908461 42.1660392,3.79622237 C42.1559075,3.80779566 42.154939,3.80890232 42.1430996,3.82243043 C41.7300573,4.29442518 41.4732243,4.59423482 41.3063874,4.80289335 C40.4032291,5.93245017 39.7530291,7.58384729 39.6251157,9.04051687 C39.445061,11.0909673 39.549494,12.8194991 39.8462068,14.0043717 C40.0112,14.2820267 40.1371063,14.586019 40.3278849,15.1070894 C40.3587696,15.1915767 40.3587696,15.1915767 40.357234,15.1975499 C40.3835615,15.2543034 40.4062997,15.3120282 40.4249717,15.3718525 C40.5554718,15.7236554 40.6454871,15.9334815 40.740584,16.0985406 C40.8594364,16.3048321 40.9582649,16.5080389 41.0356762,16.7082539 Z"></path>
                </g>
                <g id="User-Icon">
                    <use fill="#5BC894" fill-rule="evenodd" xlink:href="#path-6"></use>
                    <path stroke="#DEF4EA" stroke-width="2" d="M26.1972937,21.2391375 C32.5100888,22.5087975 36.7889889,26.2531557 36.7889889,31.1025291 C36.7889889,33.0946127 34.8538848,34.0531014 31.3967381,34.5336934 C29.0640583,34.8579687 26.56057,34.9498763 21.4813581,34.9903324 C16.5964658,35.0292408 13.7933643,34.9508865 11.4378219,34.6189147 C8.06515727,34.1435977 6.15779778,33.1354835 6.15779778,31.1025291 C6.15779778,26.2458935 10.4495074,22.4978374 16.7768566,21.2336489 C16.9305406,21.0844833 17.1338136,20.9194665 17.4696102,20.6552475 C17.540432,20.5994887 17.540432,20.5994887 17.6082857,20.5456052 C17.7729475,20.4143545 17.8875887,20.3166237 17.9672115,20.2389246 C17.9115928,20.0779198 17.7763922,19.8892244 17.5423233,19.6533325 C17.4499807,19.5602706 17.0543163,19.1895186 17.1328988,19.2642795 C16.9902506,19.1285684 16.8858072,19.0208557 16.7999928,18.9088081 C14.6281428,17.1230304 13.3155956,14.2030686 13.3155956,11.0341764 C13.3155956,5.76828747 16.9231835,1.43345377 21.4733934,1.43345377 C26.0236032,1.43345377 29.6311911,5.76828747 29.6311911,11.0341764 C29.6311911,14.2030686 28.3186439,17.1230304 26.1467939,18.9088081 C26.0609795,19.0208557 25.9565361,19.1285684 25.8138879,19.2642795 C25.8924704,19.1895186 25.496806,19.5602706 25.4044634,19.6533325 C25.175904,19.883672 25.0416134,20.0690106 24.9836352,20.2275091 C25.0765044,20.3155754 25.2075171,20.4233149 25.4342228,20.6008878 C25.4545247,20.6167849 25.4545247,20.6167849 25.4750346,20.6328336 C25.8209126,20.9034637 26.0353078,21.0778636 26.1972937,21.2391375 Z"></path>
                </g>
            </g>
        </g>
    </g>
</svg>