<?xml version="1.0" encoding="UTF-8"?>
<svg width="164px" height="50px" viewBox="0 0 164 50" version="1.1" xmlns="http://www.w3.org/2000/svg" xmlns:xlink="http://www.w3.org/1999/xlink">
    <!-- Generator: Sketch 48.2 (47327) - http://www.bohemiancoding.com/sketch -->
    <title>twoPersonRule</title>
    <desc>Created with Sketch.</desc>
    <defs>
        <rect id="path-1" x="4" y="4" width="28.7317073" height="45.75" rx="3"></rect>
        <rect id="path-2" x="0" y="0" width="28.7317073" height="45.75" rx="3"></rect>
        <rect id="path-3" x="4" y="4" width="28.7317073" height="45.75" rx="3"></rect>
        <rect id="path-4" x="0" y="0" width="28.7317073" height="45.75" rx="3"></rect>
    </defs>
    <g id="Page-1" stroke="none" stroke-width="1" fill="none" fill-rule="evenodd">
        <g id="twoPersonRule">
            <g id="phone-key-1">
                <g id="phone">
                    <g id="Rectangle-4-Copy" opacity="0.2">
                        <use fill="#5BC894" fill-rule="evenodd" xlink:href="#path-1"></use>
                        <rect stroke="#5BC894" stroke-width="2" x="5" y="5" width="26.7317073" height="43.75" rx="3"></rect>
                    </g>
                    <g id="Rectangle-4">
                        <use fill="#FFFFFF" fill-rule="evenodd" xlink:href="#path-2"></use>
                        <rect stroke="#5BC894" stroke-width="2" x="1" y="1" width="26.7317073" height="43.75" rx="3"></rect>
                    </g>
                    <rect id="Rectangle-5" fill="#5BC894" x="12.4756098" y="3" width="3.7804878" height="1.5" rx="0.75"></rect>
                    <ellipse id="Oval-3" fill="#5BC894" cx="14.9329268" cy="39.5625" rx="2.45731707" ry="2.4375"></ellipse>
                </g>
                <g id="key-group" transform="translate(10.000000, 11.000000)" fill="#5BC894">
                    <g id="shadow" opacity="0.2" transform="translate(1.376557, 1.533333)">
                        <path d="M4.5885244,9.4427002 C2.05435235,9.4427002 0,7.32887976 0,4.7213501 C0,2.11382044 2.05435235,0 4.5885244,0 C7.12269644,0 9.17704879,2.11382044 9.17704879,4.7213501 C9.17704879,7.32887976 7.12269644,9.4427002 4.5885244,9.4427002 Z M4.5885244,7.22088839 C5.93014489,7.22088839 7.01774319,6.10180698 7.01774319,4.7213501 C7.01774319,3.34089322 5.93014489,2.22181181 4.5885244,2.22181181 C3.2469039,2.22181181 2.1593056,3.34089322 2.1593056,4.7213501 C2.1593056,6.10180698 3.2469039,7.22088839 4.5885244,7.22088839 Z" id="Combined-Shape"></path>
                        <rect id="Rectangle" x="3.2389584" y="8.3317943" width="2.699132" height="12.7754179" rx="1.349566"></rect>
                        <path d="M5.9380904,16.1838792 L6.39783384,16.1838792 C7.31813843,16.1838792 8.0641927,16.9299335 8.0641927,17.8502381 L8.0641927,17.8502381 C8.0641927,18.7705427 7.31813843,19.5165969 6.39783384,19.5165969 L5.9380904,19.5165969 L5.9380904,16.1838792 Z" id="Rectangle-Copy"></path>
                        <path d="M5.9380904,13.4066145 L7.23101327,13.4066145 C7.69116557,13.4066145 8.0641927,13.7796416 8.0641927,14.2397939 L8.0641927,14.2397939 C8.0641927,14.6999462 7.69116557,15.0729733 7.23101327,15.0729733 L5.9380904,15.0729733 L5.9380904,13.4066145 Z" id="Rectangle-Copy-2"></path>
                    </g>
                    <g id="key" transform="translate(0.000000, 0.479709)">
                        <path d="M4.76999998,9.4427002 C2.13560173,9.4427002 0,7.32887976 0,4.7213501 C0,2.11382044 2.13560173,0 4.76999998,0 C7.40439823,0 9.53999996,2.11382044 9.53999996,4.7213501 C9.53999996,7.32887976 7.40439823,9.4427002 4.76999998,9.4427002 Z M4.76999998,7.22088839 C6.16468141,7.22088839 7.29529409,6.10180698 7.29529409,4.7213501 C7.29529409,3.34089322 6.16468141,2.22181181 4.76999998,2.22181181 C3.37531856,2.22181181 2.24470587,3.34089322 2.24470587,4.7213501 C2.24470587,6.10180698 3.37531856,7.22088839 4.76999998,7.22088839 Z" id="Combined-Shape"></path>
                        <rect id="Rectangle" x="3.2389584" y="8.3317943" width="2.699132" height="12.7754179" rx="1.349566"></rect>
                        <path d="M5.9380904,16.1838792 L6.39783384,16.1838792 C7.31813843,16.1838792 8.0641927,16.9299335 8.0641927,17.8502381 L8.0641927,17.8502381 C8.0641927,18.7705427 7.31813843,19.5165969 6.39783384,19.5165969 L5.9380904,19.5165969 L5.9380904,16.1838792 Z" id="Rectangle-Copy"></path>
                        <path d="M5.9380904,13.4066145 L7.23101327,13.4066145 C7.69116557,13.4066145 8.0641927,13.7796416 8.0641927,14.2397939 L8.0641927,14.2397939 C8.0641927,14.6999462 7.69116557,15.0729733 7.23101327,15.0729733 L5.9380904,15.0729733 L5.9380904,13.4066145 Z" id="Rectangle-Copy-2"></path>
                    </g>
                </g>
            </g>
            <g id="phone-key-1-copy" transform="translate(64.000000, 0.000000)">
                <g id="phone">
                    <g id="Rectangle-4-Copy" opacity="0.2">
                        <use fill="#5BC894" fill-rule="evenodd" xlink:href="#path-3"></use>
                        <rect stroke="#5BC894" stroke-width="2" x="5" y="5" width="26.7317073" height="43.75" rx="3"></rect>
                    </g>
                    <g id="Rectangle-4">
                        <use fill="#FFFFFF" fill-rule="evenodd" xlink:href="#path-4"></use>
                        <rect stroke="#5BC894" stroke-width="2" x="1" y="1" width="26.7317073" height="43.75" rx="3"></rect>
                    </g>
                    <rect id="Rectangle-5" fill="#5BC894" x="12.4756098" y="3" width="3.7804878" height="1.5" rx="0.75"></rect>
                    <ellipse id="Oval-3" fill="#5BC894" cx="14.9329268" cy="39.5625" rx="2.45731707" ry="2.4375"></ellipse>
                </g>
                <g id="key-group" transform="translate(10.000000, 11.000000)" fill="#5BC894">
                    <g id="shadow" opacity="0.2" transform="translate(1.376557, 1.533333)">
                        <path d="M4.5885244,9.4427002 C2.05435235,9.4427002 0,7.32887976 0,4.7213501 C0,2.11382044 2.05435235,0 4.5885244,0 C7.12269644,0 9.17704879,2.11382044 9.17704879,4.7213501 C9.17704879,7.32887976 7.12269644,9.4427002 4.5885244,9.4427002 Z M4.5885244,7.22088839 C5.93014489,7.22088839 7.01774319,6.10180698 7.01774319,4.7213501 C7.01774319,3.34089322 5.93014489,2.22181181 4.5885244,2.22181181 C3.2469039,2.22181181 2.1593056,3.34089322 2.1593056,4.7213501 C2.1593056,6.10180698 3.2469039,7.22088839 4.5885244,7.22088839 Z" id="Combined-Shape"></path>
                        <rect id="Rectangle" x="3.2389584" y="8.3317943" width="2.699132" height="12.7754179" rx="1.349566"></rect>
                        <path d="M5.9380904,16.1838792 L6.39783384,16.1838792 C7.31813843,16.1838792 8.0641927,16.9299335 8.0641927,17.8502381 L8.0641927,17.8502381 C8.0641927,18.7705427 7.31813843,19.5165969 6.39783384,19.5165969 L5.9380904,19.5165969 L5.9380904,16.1838792 Z" id="Rectangle-Copy"></path>
                        <path d="M5.9380904,13.4066145 L7.23101327,13.4066145 C7.69116557,13.4066145 8.0641927,13.7796416 8.0641927,14.2397939 L8.0641927,14.2397939 C8.0641927,14.6999462 7.69116557,15.0729733 7.23101327,15.0729733 L5.9380904,15.0729733 L5.9380904,13.4066145 Z" id="Rectangle-Copy-2"></path>
                    </g>
                    <g id="key" transform="translate(0.000000, 0.479709)">
                        <path d="M4.76999998,9.4427002 C2.13560173,9.4427002 0,7.32887976 0,4.7213501 C0,2.11382044 2.13560173,0 4.76999998,0 C7.40439823,0 9.53999996,2.11382044 9.53999996,4.7213501 C9.53999996,7.32887976 7.40439823,9.4427002 4.76999998,9.4427002 Z M4.76999998,7.22088839 C6.16468141,7.22088839 7.29529409,6.10180698 7.29529409,4.7213501 C7.29529409,3.34089322 6.16468141,2.22181181 4.76999998,2.22181181 C3.37531856,2.22181181 2.24470587,3.34089322 2.24470587,4.7213501 C2.24470587,6.10180698 3.37531856,7.22088839 4.76999998,7.22088839 Z" id="Combined-Shape"></path>
                        <rect id="Rectangle" x="3.2389584" y="8.3317943" width="2.699132" height="12.7754179" rx="1.349566"></rect>
                        <path d="M5.9380904,16.1838792 L6.39783384,16.1838792 C7.31813843,16.1838792 8.0641927,16.9299335 8.0641927,17.8502381 L8.0641927,17.8502381 C8.0641927,18.7705427 7.31813843,19.5165969 6.39783384,19.5165969 L5.9380904,19.5165969 L5.9380904,16.1838792 Z" id="Rectangle-Copy"></path>
                        <path d="M5.9380904,13.4066145 L7.23101327,13.4066145 C7.69116557,13.4066145 8.0641927,13.7796416 8.0641927,14.2397939 L8.0641927,14.2397939 C8.0641927,14.6999462 7.69116557,15.0729733 7.23101327,15.0729733 L5.9380904,15.0729733 L5.9380904,13.4066145 Z" id="Rectangle-Copy-2"></path>
                    </g>
                </g>
            </g>
            <g id="lock" transform="translate(128.000000, 2.000000)">
                <g id="shadow" transform="translate(5.000000, 4.000000)">
                    <rect id="Rectangle-6" fill="#DFF4EA" x="0" y="20" width="31" height="22" rx="1"></rect>
                    <path d="M3.99998933,20.6791135 L4.00006442,15 C3.99247369,5 7.99056527,6.12612528e-16 15.9943392,0 C23.9981131,0 28,5 28,15" id="Line-3" stroke="#DFF4EA" stroke-width="3" stroke-linecap="square"></path>
                </g>
                <g>
                    <rect id="Rectangle-6" fill="#5BC894" x="0" y="20" width="31" height="22" rx="1"></rect>
                    <path d="M3.99998933,20.6791135 L4.00006442,15 C3.99247369,5 7.99056527,6.12612528e-16 15.9943392,0 C23.9981131,0 28,5 28,15" id="Line-3" stroke="#5BC894" stroke-width="3" stroke-linecap="square"></path>
                </g>
                <g id="lock-hole-2" transform="translate(5.000000, 25.000000)" fill="#FFFFFF">
                    <ellipse id="Oval-4" cx="3.5" cy="2.79999995" rx="2.8" ry="2.79999995"></ellipse>
                    <path d="M3.9375,1.57142857 L5.25,11 L1.75,11 L3.0625,1.57142857 L3.9375,1.57142857 Z" id="Triangle"></path>
                </g>
                <g id="lock-hole" transform="translate(19.000000, 25.000000)" fill="#FFFFFF">
                    <ellipse id="Oval-4" cx="3.5" cy="2.79999995" rx="2.8" ry="2.79999995"></ellipse>
                    <path d="M3.9375,1.57142857 L5.25,11 L1.75,11 L3.0625,1.57142857 L3.9375,1.57142857 Z" id="Triangle"></path>
                </g>
            </g>
            <g id="Group-2" transform="translate(40.000000, 14.000000)" stroke="#5BC894" stroke-linecap="square" stroke-width="4">
                <path d="M7,0.388888889 L7,13.6339672" id="Line"></path>
                <path d="M0,7 L13.2446618,7.10503779" id="Line"></path>
            </g>
            <path d="M104,21.1050378 L112.244662,21.1050378" id="Line" stroke="#5BC894" stroke-width="4" stroke-linecap="square"></path>
            <polygon id="Triangle-2" fill="#5BC894" transform="translate(117.500000, 20.923077) rotate(90.000000) translate(-117.500000, -20.923077) " points="117.5 17.4230769 124.423077 24.4230769 110.576923 24.4230769"></polygon>
        </g>
    </g>
</svg>