<?xml version="1.0" encoding="UTF-8"?>
<svg width="56px" height="56px" viewBox="0 0 56 56" version="1.1" xmlns="http://www.w3.org/2000/svg" xmlns:xlink="http://www.w3.org/1999/xlink">
    <!-- Generator: Sketch 48.2 (47327) - http://www.bohemiancoding.com/sketch -->
    <title>Group</title>
    <desc>Created with Sketch.</desc>
    <defs></defs>
    <g id="Page-1" stroke="none" stroke-width="1" fill="none" fill-rule="evenodd">
        <g id="Group">
            <circle id="Oval-2" fill="#5BC894" opacity="0.204766757" cx="29.6231884" cy="30.0289855" r="24.3478261"></circle>
            <circle id="Oval-2" fill="#FFFFFF" cx="28.4057971" cy="28" r="20.6956522"></circle>
            <g id="compass"></g>
            <path d="M36.0686936,18.3469775 L23.8950461,23.2166248 C23.5858354,23.3408008 23.3411451,23.5855006 23.2169739,23.8947232 L18.3475149,36.0688414 C18.1673449,36.5217186 18.2732557,37.0379012 18.6177699,37.3824288 C18.8502865,37.6149544 19.1619319,37.7391304 19.4784468,37.7391304 C19.6306174,37.7391304 19.7840053,37.71113 19.9313064,37.6526942 L32.1049539,32.7830469 C32.4141646,32.6588709 32.6588549,32.4141711 32.7830261,32.1049485 L37.6524851,19.9308303 C37.8326551,19.4779531 37.7267443,18.9617705 37.3822301,18.617243 C37.0389333,18.2727154 36.5215532,18.168018 36.0686936,18.3469775 Z M30.7147234,30.7146642 L21.6623991,34.3364644 L25.2840592,25.2837901 L34.3363835,21.6619899 L30.7147234,30.7146642 Z" id="Shape" fill="#5BC894" fill-rule="nonzero"></path>
            <path d="M54.7826087,26.7838261 L51.0683478,26.7838261 C50.4511304,15.001913 40.9993043,5.54886957 29.2173913,4.93165217 L29.2173913,1.2173913 C29.2173913,0.545391304 28.672,0 28,0 C27.328,0 26.7826087,0.545391304 26.7826087,1.2173913 L26.7826087,4.93165217 C15.0006957,5.54886957 5.54886957,15.0031304 4.93165217,26.7838261 L1.2173913,26.7838261 C0.545391304,26.7838261 0,27.3292174 0,28.0012174 C0,28.6732174 0.545391304,29.2186087 1.2173913,29.2186087 L4.93165217,29.2186087 C5.55008696,40.9993043 15.001913,50.4511304 26.7826087,51.0683478 L26.7826087,54.7826087 C26.7826087,55.4546087 27.328,56 28,56 C28.672,56 29.2173913,55.4546087 29.2173913,54.7826087 L29.2173913,51.0683478 C40.998087,50.4511304 50.449913,40.9993043 51.0683478,29.2186087 L54.7826087,29.2186087 C55.4546087,29.2186087 56,28.6732174 56,28.0012174 C56,27.3292174 55.4546087,26.7838261 54.7826087,26.7838261 Z M45.0434783,29.2186087 L48.6335652,29.2186087 C48.0212174,39.6577391 39.6565217,48.0224348 29.2173913,48.6335652 L29.2173913,45.0434783 C29.2173913,44.3714783 28.672,43.826087 28,43.826087 C27.328,43.826087 26.7826087,44.3714783 26.7826087,45.0434783 L26.7826087,48.6335652 C16.3434783,48.0212174 7.97878261,39.6565217 7.36643478,29.2186087 L10.9565217,29.2186087 C11.6285217,29.2186087 12.173913,28.6732174 12.173913,28.0012174 C12.173913,27.3292174 11.6285217,26.7838261 10.9565217,26.7838261 L7.36643478,26.7838261 C7.97756522,16.3434783 16.3434783,7.97756522 26.7826087,7.36643478 L26.7826087,10.9565217 C26.7826087,11.6285217 27.328,12.173913 28,12.173913 C28.672,12.173913 29.2173913,11.6285217 29.2173913,10.9565217 L29.2173913,7.36643478 C39.6565217,7.97878261 48.0224348,16.3446957 48.6335652,26.7838261 L45.0434783,26.7838261 C44.3714783,26.7838261 43.826087,27.3292174 43.826087,28.0012174 C43.826087,28.6732174 44.3714783,29.2186087 45.0434783,29.2186087 Z" id="Shape" fill="#5BC894" fill-rule="nonzero"></path>
        </g>
    </g>
</svg>