<?xml version="1.0" encoding="UTF-8" standalone="no"?>
<svg width="118px" height="64px" viewBox="0 0 118 64" version="1.1" xmlns="http://www.w3.org/2000/svg" xmlns:xlink="http://www.w3.org/1999/xlink">
    <!-- Generator: Sketch 40.1 (33804) - http://www.bohemiancoding.com/sketch -->
    <title>pairComputer</title>
    <desc>Created with Sketch.</desc>
    <defs>
        <rect id="path-1" x="44.6984127" y="56.8888889" width="72.1269841" height="7.11111111" rx="3"></rect>
        <mask id="mask-2" maskContentUnits="userSpaceOnUse" maskUnits="objectBoundingBox" x="0" y="0" width="72.1269841" height="7.11111111" fill="white">
            <use xlink:href="#path-1"></use>
        </mask>
        <rect id="path-3" x="0" y="0" width="59.3044092" height="41.4036894"></rect>
        <mask id="mask-4" maskContentUnits="userSpaceOnUse" maskUnits="objectBoundingBox" x="0" y="0" width="59.3044092" height="41.4036894" fill="white">
            <use xlink:href="#path-3"></use>
        </mask>
        <rect id="path-5" x="0" y="0" width="30.4761905" height="49.7777778" rx="3"></rect>
        <mask id="mask-6" maskContentUnits="userSpaceOnUse" maskUnits="objectBoundingBox" x="0" y="0" width="30.4761905" height="49.7777778" fill="white">
            <use xlink:href="#path-5"></use>
        </mask>
    </defs>
    <g id="Website" stroke="none" stroke-width="1" fill="none" fill-rule="evenodd">
        <g id="pairComputer">
            <g id="Group-16">
                <circle id="Oval-5-Copy" fill="#5BC894" opacity="0.109999999" cx="42.6666667" cy="30.4761905" r="23.3650794"></circle>
                <ellipse id="Oval-5" fill="#5BC894" opacity="0.100000001" cx="42.6666667" cy="29.4603175" rx="12.1904762" ry="12.1904762"></ellipse>
                <ellipse id="---------------------" fill="#5BC894" opacity="0.560000002" cx="42.6666667" cy="29.4603175" rx="4.06349206" ry="4.06349206"></ellipse>
                <use id="Rectangle-9-Copy-22" stroke="#5BC894" mask="url(#mask-2)" stroke-width="4" fill="#5BC894" opacity="0.200000003" xlink:href="#path-1"></use>
                <g id="Group-15" transform="translate(44.698413, 0.000000)">
                    <g id="Page-1" transform="translate(6.411287, 0.000000)" stroke="#5BC894" stroke-width="4" fill="#FFFFFF">
                        <use id="Rectangle" mask="url(#mask-4)" xlink:href="#path-3"></use>
                    </g>
                    <path d="M8.01410935,39.8112398 L0.589296595,50.1387106 C0.263837072,50.5914054 0,51.4092854 0,51.9668112 L0,57.9122107 C0,58.469148 0.441894211,58.9206349 0.992161159,58.9206349 L71.134823,58.9206349 C71.6827784,58.9206349 72.1269841,58.4697365 72.1269841,57.9122107 L72.1269841,51.9668112 C72.1269841,51.4098739 71.8603404,50.5875014 71.5376875,50.1387106 L64.1128748,39.8112398 L8.01410935,39.8112398 Z" id="Path-3" stroke="#5BC894" stroke-width="2" fill="#FFFFFF"></path>
                    <rect id="Rectangle-9-Copy-16" fill="#5BC894" x="30.4536155" y="50.958387" width="12.822575" height="3.18489918" rx="1"></rect>
                    <path d="M37.6128865,9.55469755 L37.6128865,19.9587016 L48.0846561,19.9587016 L48.0846561,9.55469755 L37.6128865,9.55469755 Z M46.588689,18.4724153 L39.1088536,18.4724153 L39.1088536,11.0409838 L46.588689,11.0409838 L46.588689,18.4724153 Z M28.8864119,28.6287049 L32.8756575,28.6287049 L32.8756575,24.6652748 L28.8864119,24.6652748 L28.8864119,28.6287049 Z M25.6451499,31.8489918 L36.1169195,31.8489918 L36.1169195,21.4449878 L25.6451499,21.4449878 L25.6451499,31.8489918 Z M27.141117,22.9312741 L34.6209524,22.9312741 L34.6209524,30.3627056 L27.141117,30.3627056 L27.141117,22.9312741 Z M41.3528042,21.4449878 L37.6128865,21.4449878 L37.6128865,24.6652748 L41.3528042,24.6652748 L41.3528042,21.4449878 Z M42.8487713,22.9312741 L44.8433941,22.9312741 L44.8433941,24.6652748 L42.8487713,24.6652748 L42.8487713,27.6378474 L40.8541485,27.6378474 L40.8541485,25.6561323 L38.6101979,25.6561323 L38.6101979,27.6378474 L39.8568372,27.6378474 L39.8568372,29.8672768 L37.6128865,29.8672768 L37.6128865,31.8489918 L42.8487713,31.8489918 L42.8487713,29.8672768 L46.0900333,29.8672768 L46.0900333,27.6378474 L44.8433941,27.6378474 L44.8433941,25.6561323 L48.0846561,25.6561323 L48.0846561,21.4449878 L42.8487713,21.4449878 L42.8487713,22.9312741 Z M25.6451499,19.9587016 L36.1169195,19.9587016 L36.1169195,9.55469755 L25.6451499,9.55469755 L25.6451499,19.9587016 Z M27.141117,11.0409838 L34.6209524,11.0409838 L34.6209524,18.4724153 L27.141117,18.4724153 L27.141117,11.0409838 Z M48.0846561,31.8489918 L48.0846561,29.8672768 L46.0900333,29.8672768 L46.0900333,31.8489918 L48.0846561,31.8489918 Z M28.8864119,16.7384146 L32.8756575,16.7384146 L32.8756575,12.7749845 L28.8864119,12.7749845 L28.8864119,16.7384146 Z M44.8433941,12.7749845 L40.8541485,12.7749845 L40.8541485,16.7384146 L44.8433941,16.7384146 L44.8433941,12.7749845 Z" id="Page-1" fill="#5BC894"></path>
                </g>
                <rect id="Rectangle-9-Copy-19" fill="#DFF4EA" x="3.04761905" y="14.2222222" width="30.4761905" height="49.7777778" rx="3"></rect>
                <g id="Group-11" transform="translate(0.000000, 11.174603)">
                    <use id="Rectangle-9-Copy-19" stroke="#5BC894" mask="url(#mask-6)" stroke-width="4" fill="#FFFFFF" xlink:href="#path-5"></use>
                    <rect id="Rectangle-9-Copy-16" fill="#5BC894" x="11.2280702" y="6.42293907" width="8.02005013" height="3.21146953" rx="1"></rect>
                    <ellipse id="Oval-3-Copy-5" fill="#5BC894" cx="15.2380952" cy="40.9462366" rx="2.40601504" ry="2.40860215"></ellipse>
                </g>
            </g>
        </g>
    </g>
</svg>