<?xml version="1.0" encoding="UTF-8"?>
<svg width="123px" height="59px" viewBox="0 0 123 59" version="1.1" xmlns="http://www.w3.org/2000/svg" xmlns:xlink="http://www.w3.org/1999/xlink">
    <!-- Generator: Sketch 43.2 (39069) - http://www.bohemiancoding.com/sketch -->
    <title>Group 4</title>
    <desc>Created with Sketch.</desc>
    <defs></defs>
    <g id="Page-1" stroke="none" stroke-width="1" fill="none" fill-rule="evenodd">
        <g id="Group-4">
            <g id="Group-3">
                <g id="github-logo">
                    <circle id="Oval" fill="#5BC894" cx="29" cy="29" r="28"></circle>
                    <path d="M54.1098448,14.5092921 C51.5165843,10.045753 47.9989921,6.5119629 43.5561423,3.9071246 C39.1126313,1.30215343 34.2616419,0 28.9997355,0 C23.7384904,0 18.8859139,1.30255201 14.4433286,3.9071246 C10.0000821,6.51183005 6.48262212,10.045753 3.88936166,14.5092921 C1.29649797,18.9726984 0,23.8467725 0,29.1313818 C0,35.4793964 1.84363784,41.1876937 5.53183931,46.2577353 C9.21964401,51.3281754 13.9837417,54.8367223 19.8237357,56.7837745 C20.5035276,56.9105222 21.0067587,56.8213736 21.3339581,56.5185874 C21.6612898,56.2154026 21.8247573,55.8356909 21.8247573,55.3810466 C21.8247573,55.305184 21.8182768,54.622686 21.8057125,53.3327556 C21.7927515,52.0428253 21.7866678,50.9175075 21.7866678,49.9573337 L20.9181477,50.1082618 C20.3643951,50.2101649 19.665823,50.2533441 18.8224314,50.2411211 C17.9794366,50.2292966 17.1043038,50.1405466 16.1982232,49.9755354 C15.2917459,49.8119857 14.4486188,49.4326726 13.6681808,48.8383932 C12.8881394,48.2441138 12.3343868,47.4662229 12.0070551,46.5059163 L11.6294665,45.6330311 C11.3777848,45.0519048 10.9815481,44.4063417 10.4402275,43.6987334 C9.89890684,42.9904608 9.35150246,42.5103075 8.79774984,42.2574763 L8.53337164,42.0673548 C8.35720768,41.9410056 8.19374022,41.7886161 8.0425725,41.6117804 C7.89153703,41.4349448 7.77845882,41.2579763 7.70294108,41.080742 C7.62729109,40.9033749 7.68998007,40.7578941 7.89166929,40.643768 C8.09335851,40.5296419 8.45785391,40.4742396 8.98674255,40.4742396 L9.74165538,40.5875685 C10.245151,40.6889401 10.8679409,40.9917263 11.6108185,41.4977872 C12.3532993,42.0034495 12.9636572,42.660837 13.4420243,43.4696841 C14.0213022,44.5067833 14.719213,45.2970301 15.5377406,45.840823 C16.3556069,46.3846158 17.1802183,46.6560473 18.0107811,46.6560473 C18.8413439,46.6560473 19.5586962,46.5928063 20.1631026,46.4669886 C20.7668477,46.3405066 21.3332968,46.150385 21.8621855,45.8976867 C22.0887387,44.2026685 22.7055771,42.9005151 23.7121716,41.9902964 C22.2774669,41.8388369 20.9875817,41.6107175 19.8418547,41.3073999 C18.6967889,41.0036837 17.5135014,40.5107759 16.2927857,39.8273479 C15.0714087,39.14485 14.0582014,38.2973409 13.2528994,37.2862821 C12.447465,36.2746918 11.7864534,34.9466308 11.2707903,33.3032948 C10.7548627,31.6592946 10.4968327,29.7628618 10.4968327,27.6134649 C10.4968327,24.5530523 11.491392,21.9487454 13.4801138,19.7990829 C12.548508,17.4982265 12.6364577,14.9188972 13.7442275,12.0613606 C14.4742764,11.833507 15.5569176,12.0044968 16.9916223,12.5732673 C18.4265915,13.1423034 19.477227,13.629764 20.1445869,14.0339218 C20.8119468,14.4379467 21.3466546,14.780325 21.749504,15.0580008 C24.0910828,14.4007461 26.507518,14.0720524 28.999471,14.0720524 C31.4914239,14.0720524 33.9083882,14.4007461 36.2500992,15.0580008 L37.6849361,14.1480479 C38.6661376,13.5408811 39.8248257,12.9844666 41.1582229,12.4786715 C42.4924136,11.9731421 43.5126304,11.8339056 44.2178152,12.0617592 C45.3501845,14.9194286 45.4510952,17.4986251 44.5192249,19.7994814 C46.5078145,21.949144 47.5027705,24.5541152 47.5027705,27.6138635 C47.5027705,29.7632603 47.2438148,31.6656718 46.7286807,33.3222937 C46.2128853,34.9791813 45.5461867,36.3059137 44.7283204,37.3052809 C43.9095283,38.3045153 42.8898405,39.1453814 41.6691248,39.8277465 C40.4481446,40.510643 39.2644603,41.0035508 38.1193945,41.307267 C36.9737998,41.6109833 35.6839146,41.8392354 34.2492099,41.9909607 C35.5577431,43.1285015 36.2121419,44.9240942 36.2121419,47.3769415 L36.2121419,55.3799837 C36.2121419,55.834628 36.3695257,56.2142069 36.6845576,56.5175245 C36.9991928,56.8203108 37.4960757,56.9094593 38.1758675,56.7825787 C44.016655,54.8357922 48.7807528,51.3271125 52.4684252,46.2566724 C56.1557009,41.1866308 58,35.4783335 58,29.1303189 C57.9986774,23.846374 56.7015182,18.9726984 54.1098448,14.5092921 Z" id="Shape" fill="#FFFFFF" fill-rule="nonzero"></path>
                </g>
            </g>
            <g id="Group" transform="translate(81.000000, 11.000000)" fill-rule="nonzero">
                <path d="M22.3727604,4.6875 C34.8817372,4.6875 41.5531915,12.9619565 41.5531915,12.9619565 L41.5531915,31.9932065 C41.5531915,42.75 27.3763511,46.8872283 22.3727604,47.7146739 L22.3727604,4.6875 Z M22.3727604,4.6875 C9.8637836,4.6875 3.19232916,12.9619565 3.19232916,12.9619565 L3.19232916,31.9932065 C3.19232916,42.75 17.3691696,46.8872283 22.3727604,47.7146739 L22.3727604,4.6875 Z" id="Combined-Shape-Copy-4" fill="#5BC894" opacity="0.200000003"></path>
                <g id="Group-14" transform="translate(0.546753, 0.750000)">
                    <path d="M19.1804311,0 C31.6894079,0 38.3608623,8.27445652 38.3608623,8.27445652 L38.3608623,27.3057065 C38.3608623,38.0625 24.1840219,42.1997283 19.1804311,43.0271739 L19.1804311,0 Z M19.1804311,0 C6.6714543,0 1.07148332e-13,8.27445652 1.11910481e-13,8.27445652 C1.11910481e-13,16.5489137 1.1667263e-13,16.5489131 1.11910481e-13,27.3057065 C1.07148332e-13,38.0625 14.1768404,42.1997283 19.1804311,43.0271739 L19.1804311,0 Z" id="Combined-Shape-Copy-3" fill="#5BC894"></path>
                    <ellipse id="Oval-Copy-4" fill="#FFFFFF" cx="19.1516748" cy="20.34375" rx="11.2149447" ry="11.15625"></ellipse>
                    <ellipse id="Oval-Copy-3" fill="#5BC894" cx="19.1516748" cy="20.34375" rx="7.76419252" ry="7.72355769"></ellipse>
                </g>
            </g>
            <g id="Group-2" transform="translate(58.000000, 28.000000)" stroke="#5BC894" stroke-width="4" stroke-linecap="square">
                <path d="M7,0.388888889 L7,13.6339672" id="Line"></path>
                <path d="M0,7 L13.2446618,7.10503779" id="Line"></path>
            </g>
        </g>
    </g>
</svg>