<?xml version="1.0" encoding="UTF-8"?>
<svg width="50px" height="53px" viewBox="0 0 50 53" version="1.1" xmlns="http://www.w3.org/2000/svg" xmlns:xlink="http://www.w3.org/1999/xlink">
    <!-- Generator: Sketch 48.2 (47327) - http://www.bohemiancoding.com/sketch -->
    <title>Group 2</title>
    <desc>Created with Sketch.</desc>
    <defs></defs>
    <g id="Page-1" stroke="none" stroke-width="1" fill="none" fill-rule="evenodd">
        <g id="Group-2" transform="translate(1.000000, 1.000000)">
            <circle id="Oval-2" fill="#5BC894" opacity="0.204766757" cx="24.9166667" cy="28.5277778" r="23.4722222"></circle>
            <circle id="Oval-2" fill="#FFFFFF" cx="22.5694444" cy="24.375" r="22.5694444"></circle>
            <g id="stopwatch"></g>
            <path d="M23.2916667,0 C22.8623236,0 22.5152778,0.360497222 22.5152778,0.806481481 L22.5152778,11.5262333 C22.5152778,11.9722176 22.8623236,12.3327148 23.2916667,12.3327148 C23.7210097,12.3327148 24.0680556,11.9722176 24.0680556,11.5262333 L24.0680556,1.62747963 C35.6975847,2.05330185 45.0305556,12.0133481 45.0305556,24.1944444 C45.0305556,36.645712 35.2783347,46.7759259 23.2916667,46.7759259 C11.3049986,46.7759259 1.55277778,36.645712 1.55277778,24.1944444 C1.55277778,18.1780926 3.80430556,12.5173991 7.89276944,8.25514444 C8.1963375,7.9390037 8.19478472,7.42930741 7.89121667,7.11477963 C7.58687222,6.80186481 7.09619444,6.80186481 6.79340278,7.11639259 C2.41224028,11.6826907 0,17.748238 0,24.1944444 C0,37.5352611 10.4486417,48.3888889 23.2916667,48.3888889 C36.1346917,48.3888889 46.5833333,37.5352611 46.5833333,24.1944444 C46.5833333,10.8536278 36.1346917,0 23.2916667,0 Z" id="Shape" stroke="#5BC894" stroke-width="2" fill="#5BC894" fill-rule="nonzero"></path>
            <path d="M22.3535291,27.3348968 C22.8811987,28.0816663 23.7327373,28.5277778 24.6308814,28.5277778 C25.3813096,28.5277778 26.088292,28.2263072 26.6199112,27.6794347 C27.2020856,27.0805564 27.4998871,26.252528 27.4359032,25.4066227 C27.3719193,24.5607173 26.9524694,23.7895701 26.2834034,23.2890152 L16.058621,15.6807425 C15.7458109,15.448342 15.3121424,15.4840959 15.0372487,15.7652518 C14.762355,16.0480328 14.7283882,16.4933317 14.9550965,16.8159296 L22.3535291,27.3348968 Z" id="Shape" fill="#5BC894" fill-rule="nonzero"></path>
        </g>
    </g>
</svg>